<svg width="10" height="89" viewBox="0 0 10 89" fill="none" xmlns="http://www.w3.org/2000/svg">
<path d="M1.03897 0.599999H4.85497C5.76697 0.599999 6.57097 0.776 7.26697 1.128C7.97097 1.472 8.51497 1.96 8.89897 2.592C9.29097 3.224 9.48697 3.96 9.48697 4.8C9.48697 5.64 9.29097 6.376 8.89897 7.008C8.51497 7.64 7.97097 8.132 7.26697 8.484C6.57097 8.828 5.76697 9 4.85497 9H1.03897V0.599999ZM4.75897 7.404C5.59897 7.404 6.26697 7.172 6.76297 6.708C7.26697 6.236 7.51897 5.6 7.51897 4.8C7.51897 4 7.26697 3.368 6.76297 2.904C6.26697 2.432 5.59897 2.196 4.75897 2.196H2.98297V7.404H4.75897ZM8.47461 23.44V25H1.97061V16.6H8.31861V18.16H3.90261V19.984H7.80261V21.496H3.90261V23.44H8.47461ZM4.92983 41.144C4.26583 41.144 3.62183 41.056 2.99783 40.88C2.38183 40.696 1.88583 40.46 1.50983 40.172L2.16983 38.708C2.52983 38.972 2.95783 39.184 3.45383 39.344C3.94983 39.504 4.44583 39.584 4.94183 39.584C5.49383 39.584 5.90183 39.504 6.16583 39.344C6.42983 39.176 6.56183 38.956 6.56183 38.684C6.56183 38.484 6.48183 38.32 6.32183 38.192C6.16983 38.056 5.96983 37.948 5.72183 37.868C5.48183 37.788 5.15383 37.7 4.73783 37.604C4.09783 37.452 3.57383 37.3 3.16583 37.148C2.75783 36.996 2.40583 36.752 2.10983 36.416C1.82183 36.08 1.67783 35.632 1.67783 35.072C1.67783 34.584 1.80983 34.144 2.07383 33.752C2.33783 33.352 2.73383 33.036 3.26183 32.804C3.79783 32.572 4.44983 32.456 5.21783 32.456C5.75383 32.456 6.27783 32.52 6.78983 32.648C7.30183 32.776 7.74983 32.96 8.13383 33.2L7.53383 34.676C6.75783 34.236 5.98183 34.016 5.20583 34.016C4.66183 34.016 4.25783 34.104 3.99383 34.28C3.73783 34.456 3.60983 34.688 3.60983 34.976C3.60983 35.264 3.75783 35.48 4.05383 35.624C4.35783 35.76 4.81783 35.896 5.43383 36.032C6.07383 36.184 6.59783 36.336 7.00583 36.488C7.41383 36.64 7.76183 36.88 8.04983 37.208C8.34583 37.536 8.49383 37.98 8.49383 38.54C8.49383 39.02 8.35783 39.46 8.08583 39.86C7.82183 40.252 7.42183 40.564 6.88583 40.796C6.34983 41.028 5.69783 41.144 4.92983 41.144ZM4.02725 48.6H5.97125V57H4.02725V48.6ZM7.04309 68.668H8.81909V72.076C8.36309 72.42 7.83509 72.684 7.23509 72.868C6.63509 73.052 6.03109 73.144 5.42309 73.144C4.55109 73.144 3.76709 72.96 3.07109 72.592C2.37509 72.216 1.82709 71.7 1.42709 71.044C1.03509 70.38 0.839094 69.632 0.839094 68.8C0.839094 67.968 1.03509 67.224 1.42709 66.568C1.82709 65.904 2.37909 65.388 3.08309 65.02C3.78709 64.644 4.57909 64.456 5.45909 64.456C6.19509 64.456 6.86309 64.58 7.46309 64.828C8.06309 65.076 8.56709 65.436 8.97509 65.908L7.72709 67.06C7.12709 66.428 6.40309 66.112 5.55509 66.112C5.01909 66.112 4.54309 66.224 4.12709 66.448C3.71109 66.672 3.38709 66.988 3.15509 67.396C2.92309 67.804 2.80709 68.272 2.80709 68.8C2.80709 69.32 2.92309 69.784 3.15509 70.192C3.38709 70.6 3.70709 70.92 4.11509 71.152C4.53109 71.376 5.00309 71.488 5.53109 71.488C6.09109 71.488 6.59509 71.368 7.04309 71.128V68.668ZM8.8543 80.6V89H7.2583L3.0703 83.9V89H1.1503V80.6H2.7583L6.9343 85.7V80.6H8.8543Z" fill="#5D74E4"/>
</svg>
