<svg width="502" height="43" viewBox="0 0 502 43" fill="none" xmlns="http://www.w3.org/2000/svg">
<path d="M10.7 7.8V18.9H30.14V26.7H10.7V42H0.98V-2.86102e-06H32.72V7.8H10.7ZM95.8203 34.2V42H63.3003V-2.86102e-06H95.0403V7.8H72.9603V16.92H92.4603V24.48H72.9603V34.2H95.8203ZM155.214 33H135.714L131.994 42H122.034L140.754 -2.86102e-06H150.354L169.134 42H158.934L155.214 33ZM152.154 25.62L145.494 9.54L138.834 25.62H152.154ZM204.082 7.92H190.642V-2.86102e-06H227.242V7.92H213.802V42H204.082V7.92ZM274.429 42.72C268.429 42.72 263.749 41.06 260.389 37.74C257.069 34.42 255.409 29.68 255.409 23.52V-2.86102e-06H265.129V23.16C265.129 30.68 268.249 34.44 274.489 34.44C277.529 34.44 279.849 33.54 281.449 31.74C283.049 29.9 283.849 27.04 283.849 23.16V-2.86102e-06H293.449V23.52C293.449 29.68 291.769 34.42 288.409 37.74C285.089 41.06 280.429 42.72 274.429 42.72ZM353.814 42L345.714 30.3H345.234H336.774V42H327.054V-2.86102e-06H345.234C348.954 -2.86102e-06 352.174 0.619998 354.894 1.86C357.654 3.1 359.774 4.86 361.254 7.14C362.734 9.42 363.474 12.12 363.474 15.24C363.474 18.36 362.714 21.06 361.194 23.34C359.714 25.58 357.594 27.3 354.834 28.5L364.254 42H353.814ZM353.634 15.24C353.634 12.88 352.874 11.08 351.354 9.84C349.834 8.56 347.614 7.92 344.694 7.92H336.774V22.56H344.694C347.614 22.56 349.834 21.92 351.354 20.64C352.874 19.36 353.634 17.56 353.634 15.24ZM427.695 34.2V42H395.175V-2.86102e-06H426.915V7.8H404.835V16.92H424.335V24.48H404.835V34.2H427.695ZM459.429 -2.86102e-06H478.509C483.069 -2.86102e-06 487.089 0.879998 490.569 2.64C494.089 4.36 496.809 6.8 498.729 9.96C500.689 13.12 501.669 16.8 501.669 21C501.669 25.2 500.689 28.88 498.729 32.04C496.809 35.2 494.089 37.66 490.569 39.42C487.089 41.14 483.069 42 478.509 42H459.429V-2.86102e-06ZM478.029 34.02C482.229 34.02 485.569 32.86 488.049 30.54C490.569 28.18 491.829 25 491.829 21C491.829 17 490.569 13.84 488.049 11.52C485.569 9.16 482.229 7.98 478.029 7.98H469.149V34.02H478.029Z" fill="#F6F2E9"/>
</svg>
