<svg width="1440" height="589" viewBox="0 0 1440 589" fill="none" xmlns="http://www.w3.org/2000/svg">
<path opacity="0.05" fill-rule="evenodd" clip-rule="evenodd" d="M634.971 12.7448C634.688 11.4948 634.421 10.3142 634.181 9.09111C633.898 7.92323 633.619 6.72693 633.337 5.52197L633.336 5.51664C633.059 4.33118 632.779 3.13737 632.494 1.95401C632.379 1.28643 632.03 0.708549 631.519 0.386122C631.008 0.0636944 630.389 -0.0884286 629.764 0.0529327L588.723 9.33566L577.529 18.5832C577.159 18.8858 576.89 19.3116 576.888 19.7865C576.929 20.2883 577.193 20.8125 577.704 21.1349L577.875 21.2424L592.252 24.7793L633.224 15.5122C634.474 15.2295 635.254 13.9948 634.971 12.7448ZM588.482 13.1129L588.765 14.363C588.843 14.7102 589.061 15.026 589.359 15.2141C589.657 15.4022 590.035 15.4625 590.383 15.384C591.146 15.2112 591.603 14.4874 591.43 13.7235L590.959 11.6402L619.848 5.10614L622.11 15.1062L593.306 21.694L592.819 19.5412C592.646 18.7773 591.923 18.3205 591.159 18.4933C590.395 18.6661 589.938 19.3898 590.111 20.1537L590.409 21.4732L581.176 19.2182L588.482 13.1129ZM624.904 14.5474L622.626 4.47786L629.891 2.87122C630.063 3.63411 630.241 4.39998 630.418 5.16585L630.418 5.16629C630.773 6.70091 631.128 8.23554 631.446 9.74625C631.681 10.7879 631.917 11.8296 632.126 12.9138L624.904 14.5474ZM277.051 38.7836L255.027 26.0676C253.908 25.4216 252.669 25.2558 251.47 25.4276C251.02 24.3038 250.257 23.3136 249.138 22.6676L227.113 9.95159C225.582 9.06759 223.572 9.55627 222.654 11.1463L203.58 44.1834C202.696 45.7146 203.185 47.7241 204.775 48.6421L228.036 62.0721L227.968 62.1899C227.458 63.0733 227.723 64.2468 228.665 64.7908C229.608 65.3348 230.722 65.0362 231.266 64.0939L231.334 63.9762L231.452 64.0442L254.831 77.5421C256.362 78.4261 258.372 77.9375 259.29 76.3474L278.398 43.2514C279.164 41.6523 278.642 39.7016 277.051 38.7836ZM225.655 13.4285L247.268 25.9065C247.974 26.3145 248.282 27.2774 247.84 28.043L230.16 58.6656C230.146 58.69 230.122 58.7086 230.094 58.7304C230.054 58.7611 230.005 58.7982 229.965 58.8672L207.057 45.6412L225.655 13.4285ZM256.205 73.9383L233.297 60.7123L251.113 29.8541C251.521 29.1474 252.484 28.8396 253.25 29.2816L274.862 41.7596L256.264 73.9723L256.205 73.9383ZM65.5531 33.8254L60.8171 25.6224L60.9514 25.471C61.2668 24.9933 61.4862 24.3493 61.3645 23.7544C61.153 22.6202 60.1102 21.966 59.0548 22.058L30.34 25.1865L30.1418 25.2271C29.4915 25.3808 28.8818 25.7328 28.4236 26.2191L10.8025 49.8426C10.2974 50.5037 10.238 51.4248 10.654 52.1453C11.07 52.8659 11.8974 53.275 12.7225 53.1681L22.3787 52.1011L28.9707 63.5187C32.1067 68.9505 39.0133 70.8011 44.445 67.6651L57.5809 60.0811C63.0126 56.9451 64.8632 50.0385 61.7272 44.6067L55.2632 33.4108L55.6341 32.9011L58.6007 28.8235L62.5367 35.6408L61.6934 38.7881C61.6465 38.963 61.7425 39.1293 61.9174 39.1761L67.1629 40.5816C67.3378 40.6285 67.504 40.5325 67.5509 40.3576L68.9564 35.1121C69.0033 34.9373 68.9073 34.771 68.7324 34.7241L65.5531 33.8254ZM58.7342 46.3347C60.8782 50.0483 59.5898 54.8567 55.8763 57.0007L42.685 64.6167C38.9715 66.7607 34.1631 65.4723 32.0191 61.7587L26.1951 51.6713L41.8893 49.9264L42.0876 49.8858C42.4287 49.8367 42.7058 49.6767 43.0384 49.4847C43.3155 49.3247 43.6161 49.0773 43.8612 48.8618L53.0062 36.4136L58.7342 46.3347ZM52.8147 30.8338L41.3104 46.4917L20.2284 48.7607L15.5315 49.3293L30.8955 28.7087L56.2779 25.9522L52.8147 30.8338ZM250.123 145.386L275.754 130.588C276.482 130.167 276.777 129.22 276.328 128.444C275.88 127.667 274.94 127.497 274.212 127.918L248.581 142.716C245.62 144.425 244.454 148.011 245.768 151.071C245.776 151.196 245.86 151.342 245.944 151.488L266.908 187.798C268.253 190.128 271.239 190.928 273.569 189.583L299.831 174.421C300.802 173.86 301.15 172.558 300.59 171.587L281.28 138.141C280.719 137.17 279.418 136.822 278.447 137.382L253.738 151.648C252.039 152.629 249.742 152.013 248.761 150.314C247.78 148.615 248.424 146.366 250.123 145.386ZM255.28 154.317L279.114 140.557L297.416 172.255L272.028 186.913C271.154 187.417 270.082 187.13 269.577 186.256L251.641 155.189C252.851 155.267 254.115 154.99 255.28 154.317ZM287.161 170.862L274.831 177.98C274.103 178.401 273.808 179.348 274.257 180.124C274.705 180.901 275.624 181.147 276.401 180.699L288.682 173.608C289.41 173.188 289.705 172.241 289.256 171.464C288.808 170.688 287.889 170.441 287.161 170.862ZM278.201 152.54L263.396 161.088C262.862 161.396 262.173 161.211 261.864 160.678L260.183 157.765C259.874 157.231 260.059 156.542 260.593 156.234L275.399 147.686C275.933 147.377 276.622 147.562 276.93 148.096L278.612 151.008C278.92 151.542 278.735 152.232 278.201 152.54ZM696.393 223.37L689.701 220.8L699.318 195.767C700.81 191.884 698.883 187.442 695 185.95L694.94 185.927L694.164 185.628L688.608 183.494L665.308 174.542C659.513 172.316 652.92 175.199 650.671 181.054L649.156 184.997C648.513 186.67 649.36 188.572 651.032 189.215L656.887 191.464L646.398 218.766C645.181 221.933 646.74 225.548 649.967 226.788L657.076 229.519L655.607 233.343C655.332 234.06 655.474 234.937 656.017 235.488C656.247 235.782 656.522 235.957 656.881 236.095C657.239 236.232 657.703 236.273 658.094 236.149L663.355 234.948L666.458 239.363C666.895 240.01 667.671 240.309 668.443 240.262C669.238 240.156 669.909 239.66 670.184 238.943L671.676 235.06C671.773 235.165 671.952 235.234 672.071 235.28L685.872 240.582C686.111 240.674 686.29 240.743 686.492 240.752L686.552 240.775L686.612 240.798C686.666 240.819 686.736 240.832 686.813 240.846C686.908 240.864 687.014 240.884 687.113 240.922L687.232 240.968C687.257 240.977 687.281 240.986 687.303 240.99C687.318 240.993 687.333 240.993 687.345 240.987C687.358 240.982 687.368 240.972 687.375 240.954C687.434 240.977 687.485 240.979 687.535 240.981C687.567 240.983 687.599 240.984 687.634 240.991C687.641 240.992 687.649 240.994 687.657 240.996C687.669 240.999 687.683 241.004 687.696 241.009C687.707 241.013 687.721 241.016 687.736 241.018C687.752 241.02 687.771 241.022 687.79 241.023L687.809 241.024L687.827 241.025C687.878 241.027 687.928 241.029 687.958 241.041C688.018 241.064 688.078 241.087 688.101 241.027C688.185 241.031 688.269 241.035 688.349 241.037C688.461 241.04 688.564 241.04 688.647 241.031C688.707 241.054 688.79 241.018 688.79 241.018C688.804 241.023 688.816 241.024 688.828 241.022C688.84 241.02 688.85 241.015 688.861 241.011L688.865 241.009C688.873 241.005 688.882 241.002 688.891 241C688.903 240.997 688.917 240.998 688.932 241.004C689.033 241.008 689.125 240.992 689.217 240.976C689.309 240.96 689.401 240.944 689.502 240.948C689.644 240.935 689.87 240.884 690.035 240.81C690.035 240.81 690.095 240.833 690.118 240.774L690.2 240.737L690.283 240.7C690.366 240.663 690.443 240.641 690.52 240.62C690.546 240.612 690.572 240.605 690.598 240.597C690.65 240.581 690.702 240.563 690.756 240.539C690.817 240.512 690.882 240.486 690.947 240.46C691.15 240.379 691.364 240.294 691.524 240.148C691.689 240.075 691.96 239.904 692.171 239.711C692.194 239.652 692.254 239.675 692.277 239.615C692.288 239.585 692.309 239.576 692.33 239.567L692.337 239.563C692.34 239.562 692.343 239.561 692.346 239.559L692.349 239.557C692.351 239.556 692.354 239.554 692.356 239.553C692.359 239.551 692.362 239.549 692.364 239.546C692.372 239.539 692.378 239.531 692.383 239.518C692.394 239.488 692.415 239.479 692.435 239.47C692.456 239.461 692.477 239.452 692.488 239.422C692.507 239.405 692.525 239.389 692.543 239.375C692.561 239.36 692.579 239.347 692.597 239.334L692.635 239.307C692.682 239.274 692.729 239.24 692.782 239.192L693.099 238.902C693.111 238.872 693.137 238.848 693.163 238.824C693.19 238.8 693.216 238.776 693.228 238.746C693.485 238.434 693.742 238.121 693.94 237.785L693.94 237.785C694.16 237.39 694.381 236.995 694.564 236.517L698.03 227.496C698.911 225.915 698.065 224.013 696.393 223.37ZM653.98 182.257C655.518 178.254 660.066 176.231 664.069 177.768L687.07 186.605C685.774 187.479 684.722 188.789 684.126 190.342L681.555 197.033L652.58 185.901L653.98 182.257ZM667.357 224.351C663.833 222.996 662.067 219.027 663.421 215.502C664.775 211.977 668.722 210.271 672.246 211.625C675.771 212.98 677.537 216.949 676.183 220.474C674.829 223.999 670.882 225.705 667.357 224.351ZM664.856 230.863L659.843 231.953L662.414 225.262C663.402 226.259 664.638 227.145 666.072 227.696C667.506 228.247 668.935 228.453 670.419 228.338L667.826 235.089L664.856 230.863ZM672.879 231.751L674.646 227.151C676.782 226.052 678.528 224.186 679.469 221.736C681.512 216.419 678.886 210.405 673.509 208.34C668.192 206.297 662.178 208.923 660.112 214.3C659.194 216.689 659.241 219.244 660.069 221.55L658.325 226.091L651.215 223.359C649.841 222.832 649.142 221.26 649.67 219.886L660.159 192.584L680.472 200.388C682.145 201.03 684.047 200.184 684.689 198.511L687.329 191.641C688.178 189.431 690.645 188.184 692.901 188.914L693.678 189.213C695.769 190.016 696.836 192.414 696.033 194.505L681.825 231.486C681.389 232.621 681.252 233.871 681.422 235.033L673.297 231.912C673.141 231.783 673.021 231.737 672.879 231.751ZM691.214 235.779C691.15 235.857 691.08 235.95 691.01 236.043C690.94 236.136 690.87 236.229 690.805 236.307C690.777 236.333 690.75 236.355 690.726 236.375C690.658 236.429 690.605 236.472 690.571 236.56L690.383 236.693C690.3 236.73 690.194 236.827 690.112 236.863L690.029 236.9C690.021 236.904 690.013 236.908 690.004 236.912L689.993 236.919L689.98 236.926C689.969 236.932 689.958 236.939 689.947 236.946C689.879 236.988 689.797 237.038 689.698 237.047C689.615 237.084 689.533 237.121 689.39 237.135L689.308 237.171C689.083 237.222 688.857 237.273 688.655 237.264C688.647 237.267 688.64 237.27 688.632 237.273C688.623 237.276 688.614 237.278 688.606 237.279C688.6 237.281 688.595 237.281 688.589 237.282C688.538 237.287 688.496 237.271 688.453 237.255C688.431 237.246 688.406 237.246 688.38 237.247L688.367 237.249L688.355 237.25L688.341 237.251L688.328 237.252C688.3 237.254 688.274 237.254 688.251 237.245L688.108 237.259C688.049 237.236 687.906 237.25 687.846 237.227L687.787 237.204C687.727 237.181 687.585 237.195 687.525 237.172L687.405 237.126L687.107 237.011C685.314 236.323 684.431 234.338 685.12 232.546L688.379 224.062L694.772 226.518C694.772 226.518 691.343 235.622 691.214 235.779ZM388.321 188.317H396.421C397.571 188.317 398.471 189.167 398.471 190.317V190.967C398.471 196.667 394.121 205.317 388.171 206.167C387.421 210.917 384.071 214.767 379.671 216.317V227.217H388.121C389.121 227.217 389.921 228.017 389.921 229.017V231.567C389.921 232.567 389.121 233.367 388.121 233.367H363.221C362.221 233.367 361.421 232.567 361.421 231.567V229.067C361.421 228.067 362.221 227.267 363.221 227.267H371.221V216.367C366.821 214.817 363.471 210.967 362.721 206.217C356.771 205.367 352.421 196.717 352.421 191.017V190.367C352.421 189.167 353.271 188.317 354.421 188.317H362.521V188.167C362.521 186.817 363.621 185.767 364.921 185.767H385.921C387.271 185.767 388.321 186.867 388.321 188.167V188.317ZM355.121 191.067C355.171 195.317 358.371 201.917 362.221 203.267V191.067H355.121ZM374.171 227.217H376.671V217.017C376.271 217.067 375.821 217.067 375.421 217.067C375.021 217.067 374.571 217.067 374.171 217.017V227.217ZM375.421 214.317C381.021 214.317 385.571 209.767 385.571 204.167V188.517H365.271V204.167C365.271 209.767 369.821 214.317 375.421 214.317ZM388.621 191.067V203.267C392.471 201.917 395.671 195.317 395.721 191.067H388.621ZM187.169 265.643L187.319 275.114L189.66 277.445C189.79 277.571 189.793 277.763 189.667 277.893L185.888 281.793C185.762 281.923 185.57 281.926 185.44 281.8L181.54 278.022C181.41 277.896 181.407 277.704 181.533 277.574L183.8 275.233L183.676 267.362L179.101 269.483L178.529 269.748L178.733 282.675C178.833 288.946 173.857 294.081 167.586 294.18L152.42 294.42C146.149 294.52 141.013 289.544 140.914 283.273L140.706 270.091L131.749 266.328C130.976 266.02 130.452 265.26 130.439 264.428C130.426 263.596 130.925 262.82 131.688 262.488L158.573 250.413C159.209 250.211 159.913 250.2 160.556 250.382L160.749 250.443L187.362 261.671C188.329 262.104 188.922 263.183 188.556 264.277C188.373 264.856 187.868 265.312 187.36 265.576L187.169 265.643ZM167.594 290.66C171.882 290.592 175.346 287.017 175.278 282.729L175.097 271.275L161.053 277.706C160.734 277.775 160.351 277.845 160.031 277.85C159.647 277.856 159.327 277.861 159.005 277.738L158.812 277.677L144.249 271.571L144.434 283.217C144.502 287.505 148.077 290.969 152.364 290.901L167.594 290.66ZM159.976 274.394L177.642 266.306L183.042 263.724L159.522 253.791L136.07 264.339L140.451 266.126L159.976 274.394ZM566.675 153.068L559.504 154.202L552.762 111.567C552.525 110.068 551.166 109.08 549.667 109.317L541.713 110.575C540.736 110.73 540.012 111.646 540.177 112.689C540.342 113.732 541.248 114.391 542.291 114.226L549.331 113.112L555.929 154.834L548.693 155.978C547.715 156.133 546.991 157.049 547.156 158.092C547.321 159.135 548.227 159.794 549.27 159.629L567.328 156.773C568.306 156.619 569.03 155.702 568.865 154.659C568.7 153.616 567.718 152.903 566.675 153.068ZM550.884 97.8315C552.565 99.0531 552.937 101.406 551.715 103.086C550.493 104.767 548.141 105.139 546.46 103.917C544.78 102.696 544.407 100.343 545.629 98.6625C546.851 96.9819 549.203 96.6098 550.884 97.8315ZM228.502 23.8662L238.101 29.4082C238.984 29.9182 239.342 31.0668 238.798 32.0091C238.254 32.9513 237.08 33.216 236.197 32.706L226.598 27.164C225.656 26.62 225.357 25.5053 225.901 24.5631C226.445 23.6208 227.618 23.3562 228.502 23.8662ZM253.191 42.439L262.79 47.981C263.674 48.491 264.847 48.2264 265.391 47.2841C265.935 46.3419 265.637 45.2272 264.694 44.6832L255.095 39.1412C254.212 38.6312 253.038 38.8959 252.494 39.8381C251.95 40.7804 252.249 41.895 253.191 42.439ZM258.744 54.9891L249.145 49.4471C248.203 48.9031 247.905 47.7884 248.449 46.8462C248.993 45.9039 250.166 45.6393 251.049 46.1493L260.648 51.6913C261.591 52.2353 261.889 53.35 261.345 54.2922C260.801 55.2344 259.628 55.4991 258.744 54.9891ZM234.055 36.416L224.456 30.8741C223.572 30.364 222.399 30.6287 221.855 31.571C221.311 32.5132 221.61 33.6279 222.552 34.1719L232.151 39.7139C233.034 40.2239 234.208 39.9592 234.752 39.017C235.296 38.0747 234.938 36.926 234.055 36.416ZM220.41 37.8819L230.009 43.4239C230.892 43.9339 231.25 45.0826 230.706 46.0248C230.162 46.9671 228.988 47.2318 228.105 46.7218L218.506 41.1798C217.564 40.6358 217.265 39.5211 217.809 38.5788C218.353 37.6366 219.526 37.3719 220.41 37.8819ZM245.099 56.4549L254.698 61.9969C255.581 62.5069 256.755 62.2422 257.299 61.3C257.843 60.3578 257.544 59.2431 256.602 58.6991L247.003 53.1571C246.119 52.6471 244.946 52.9118 244.402 53.854C243.858 54.7962 244.156 55.9109 245.099 56.4549ZM511.419 292.874L475.366 267.708C476.428 266.186 484.13 269.689 493.072 275.775L495.38 272.468L495.17 272.322C490.298 267.672 487.987 261.143 488.749 254.572L483.449 250.872C482.609 250.286 482.419 249.217 483.005 248.377C483.591 247.538 484.713 247.384 485.5 247.933L507.962 263.612C508.749 264.161 508.939 265.23 508.353 266.07C507.767 266.91 506.645 267.063 505.858 266.514L492.108 256.916C492.041 261.709 493.966 266.331 497.552 269.692C498.701 270.728 499.924 271.66 501.294 272.382C509.07 276.561 518.813 274.23 523.869 266.988C526.689 262.947 527.668 257.855 526.581 253.038C526.502 252.592 526.386 252.199 526.271 251.806L511.663 259.092C510.782 259.571 509.697 259.672 508.763 259.332C508.721 259.312 508.679 259.292 508.638 259.273L508.632 259.27C508.336 259.13 508.073 259.006 507.798 258.814C507.273 258.448 506.822 257.977 506.496 257.437L503.331 251.013C502.395 249.111 503.137 246.819 505.039 245.883L528.046 234.391C529.948 233.455 532.24 234.197 533.176 236.099L536.341 242.523C537.276 244.425 536.535 246.717 534.633 247.653L529.519 250.171C529.575 250.398 529.638 250.63 529.702 250.863C529.731 250.968 529.761 251.074 529.79 251.18C529.885 251.519 529.98 251.859 530.062 252.189C531.412 257.97 530.251 264.106 526.844 268.987C520.727 277.751 509.038 280.519 499.699 275.561L499.541 275.451L497.307 278.653C506.276 285.147 512.482 291.352 511.419 292.874ZM509.865 255.965C509.918 256.001 510.007 255.985 510.096 255.97L532.977 244.546C533.103 244.477 533.16 244.283 533.092 244.158L529.927 237.734C529.859 237.608 529.665 237.551 529.539 237.619L506.658 249.043C506.532 249.111 506.474 249.305 506.543 249.431L509.708 255.855L509.865 255.965ZM457.45 17.0738C457.203 16.5099 456.772 16.0875 456.182 15.8577L448.063 12.6984C447.501 12.3948 446.854 12.3127 446.318 12.4868C445.732 12.6835 445.207 13.1591 445 13.8008L441.559 22.5323L410.135 36.3504C408.956 36.8689 408.417 38.1461 408.958 39.3764L425.909 77.9259C426.428 79.105 427.705 79.6445 428.935 79.1035L467.434 62.1746C468.613 61.6561 469.152 60.3789 468.611 59.1486L454.41 26.8531L457.54 18.8084C457.719 18.2405 457.698 17.6377 457.45 17.0738ZM443.174 47.2101L441.993 46.7506C441.181 46.4346 440.309 46.8178 439.993 47.6297C439.678 48.4415 440.061 49.313 440.873 49.6289L441.168 49.7438L436.705 53.786L436.127 47.7395L436.422 47.8544C436.791 47.998 437.217 47.994 437.576 47.8362C437.935 47.6784 438.226 47.3669 438.37 46.9978C438.686 46.186 438.302 45.3145 437.491 44.9986L436.31 44.5391L444.553 23.3572L451.394 25.9769L443.174 47.2101ZM465.374 59.7158L428.464 75.9459L412.144 38.8317L440.031 26.569L432.908 44.8725L432.742 45.1903L433.873 56.8055C433.922 57.3345 434.125 57.7958 434.562 58.0932L434.583 58.1054C434.839 58.2502 435.413 58.5753 436.21 58.2248L436.415 58.1347L445.238 50.0953L452.705 30.9062L465.374 59.7158ZM452.514 23.0986L445.673 20.4788L447.511 15.7553L454.375 18.4263L452.514 23.0986ZM9.5926 191.331C10.0094 191.808 10.1951 192.382 10.1535 192.997C10.112 193.611 9.8507 194.155 9.42937 194.576L2.92752 200.254L0.54763 235.454C0.45697 236.795 -0.612953 237.676 -1.89802 237.589L-43.8582 234.752C-45.1992 234.662 -46.081 233.592 -45.9941 232.307L-43.1534 190.291C-43.0627 188.95 -41.9928 188.068 -40.7077 188.155L-6.4579 190.471L0.636677 184.327C1.11766 183.855 1.80323 183.676 2.41405 183.774C2.969 183.867 3.50506 184.24 3.86217 184.77L9.5926 191.331ZM-17.2959 212.133L-16.4623 213.087L0.660999 198.08L-4.1876 192.589L-21.3072 207.54L-20.4736 208.494C-19.9006 209.15 -19.9648 210.1 -20.621 210.673C-20.9192 210.934 -21.3217 211.075 -21.7128 211.048C-22.1039 211.022 -22.4836 210.828 -22.7441 210.53L-22.9525 210.291L-25.2413 215.917L-19.4138 214.403L-19.6222 214.164C-20.1953 213.508 -20.131 212.559 -19.4749 211.985C-18.8187 211.412 -17.8689 211.477 -17.2959 212.133ZM-42.8124 231.736L-2.58421 234.456L-0.461201 203.056L-15.9702 216.6L-27.5133 219.637L-27.7368 219.622C-28.6054 219.563 -28.9637 219.009 -29.1232 218.762L-29.1366 218.741C-29.3857 218.275 -29.3517 217.772 -29.1501 217.281L-24.7705 206.464L-24.476 206.259L-9.68278 193.34L-40.0774 191.285L-42.8124 231.736ZM-1.86125 190.557L2.98735 196.048L6.80117 192.77L1.95636 187.223L-1.86125 190.557ZM634.971 306.745C634.688 305.495 634.421 304.314 634.181 303.091C633.898 301.923 633.619 300.727 633.337 299.522L633.336 299.518C633.059 298.332 632.78 297.138 632.494 295.954C632.379 295.286 632.03 294.709 631.519 294.386C631.008 294.064 630.389 293.912 629.764 294.053L588.723 303.336L577.529 312.583C577.159 312.886 576.89 313.312 576.888 313.786C576.929 314.288 577.193 314.812 577.704 315.135L577.875 315.242L592.252 318.779L633.224 309.512C634.474 309.23 635.254 307.995 634.971 306.745ZM588.482 307.113L588.765 308.363C588.843 308.71 589.061 309.026 589.359 309.214C589.657 309.402 590.035 309.462 590.383 309.384C591.146 309.211 591.603 308.487 591.43 307.724L590.959 305.64L619.848 299.106L622.11 309.106L593.306 315.694L592.819 313.541C592.646 312.777 591.923 312.32 591.159 312.493C590.395 312.666 589.938 313.39 590.111 314.154L590.409 315.473L581.176 313.218L588.482 307.113ZM624.904 308.547L622.626 298.478L629.891 296.871C630.063 297.634 630.241 298.4 630.418 299.166C630.773 300.701 631.128 302.236 631.446 303.746L631.446 303.747C631.682 304.788 631.917 305.83 632.126 306.914L624.904 308.547ZM277.051 332.784L255.027 320.068C253.908 319.422 252.669 319.256 251.47 319.428C251.02 318.304 250.257 317.314 249.138 316.668L227.113 303.952C225.582 303.068 223.572 303.556 222.654 305.146L203.58 338.183C202.696 339.715 203.185 341.724 204.775 342.642L228.036 356.072L227.968 356.19C227.458 357.073 227.723 358.247 228.665 358.791C229.608 359.335 230.722 359.036 231.266 358.094L231.334 357.976L231.452 358.044L254.831 371.542C256.362 372.426 258.372 371.937 259.29 370.347L278.398 337.251C279.164 335.652 278.642 333.702 277.051 332.784ZM225.655 307.429L247.268 319.907C247.974 320.315 248.282 321.277 247.84 322.043L230.16 352.666C230.146 352.69 230.122 352.709 230.094 352.73C230.054 352.761 230.005 352.798 229.965 352.867L207.057 339.641L225.655 307.429ZM256.205 367.938L233.297 354.712L251.113 323.854C251.521 323.147 252.484 322.84 253.25 323.282L274.862 335.76L256.264 367.972L256.205 367.938ZM65.5531 327.825L60.8171 319.622L60.9514 319.471C61.2668 318.993 61.4862 318.349 61.3645 317.754C61.153 316.62 60.1102 315.966 59.0548 316.058L30.34 319.187L30.1418 319.227C29.4915 319.381 28.8818 319.733 28.4236 320.219L10.8025 343.843C10.2974 344.504 10.238 345.425 10.654 346.145C11.07 346.866 11.8974 347.275 12.7225 347.168L22.3787 346.101L28.9707 357.519C32.1067 362.95 39.0133 364.801 44.445 361.665L57.5809 354.081C63.0126 350.945 64.8632 344.038 61.7272 338.607L55.2632 327.411L55.6341 326.901L58.6007 322.823L62.5367 329.641L61.6934 332.788C61.6465 332.963 61.7425 333.129 61.9174 333.176L67.1629 334.582C67.3378 334.628 67.504 334.533 67.5509 334.358L68.9564 329.112C69.0033 328.937 68.9073 328.771 68.7324 328.724L65.5531 327.825ZM58.7342 340.335C60.8782 344.048 59.5898 348.857 55.8763 351.001L42.685 358.617C38.9715 360.761 34.1631 359.472 32.0191 355.759L26.1951 345.671L41.8893 343.926L42.0876 343.886C42.4287 343.837 42.7058 343.677 43.0384 343.485C43.3155 343.325 43.6161 343.077 43.8612 342.862L53.0062 330.414L58.7342 340.335ZM52.8147 324.834L41.3104 340.492L20.2284 342.761L15.5315 343.329L30.8955 322.709L56.2779 319.952L52.8147 324.834ZM250.123 439.386L275.754 424.588C276.482 424.167 276.777 423.22 276.328 422.444C275.88 421.667 274.94 421.497 274.212 421.918L248.581 436.716C245.62 438.425 244.454 442.011 245.768 445.071C245.776 445.196 245.86 445.342 245.944 445.488L266.908 481.798C268.253 484.128 271.239 484.928 273.569 483.583L299.831 468.421C300.802 467.86 301.15 466.558 300.59 465.587L281.28 432.141C280.719 431.17 279.418 430.822 278.447 431.382L253.738 445.648C252.039 446.629 249.742 446.013 248.761 444.314C247.78 442.615 248.424 440.366 250.123 439.386ZM255.28 448.317L279.114 434.557L297.416 466.255L272.028 480.913C271.154 481.417 270.082 481.13 269.577 480.256L251.641 449.189C252.851 449.267 254.115 448.99 255.28 448.317ZM287.161 464.862L274.831 471.98C274.103 472.401 273.808 473.348 274.257 474.124C274.705 474.901 275.624 475.147 276.401 474.699L288.682 467.608C289.41 467.188 289.705 466.241 289.256 465.464C288.808 464.688 287.889 464.441 287.161 464.862ZM278.201 446.54L263.396 455.088C262.862 455.396 262.173 455.211 261.864 454.678L260.183 451.765C259.874 451.231 260.059 450.542 260.593 450.234L275.399 441.686C275.933 441.377 276.622 441.562 276.93 442.096L278.612 445.008C278.92 445.542 278.735 446.232 278.201 446.54ZM696.393 517.37L689.701 514.8L699.318 489.767C700.81 485.884 698.883 481.442 695 479.95L694.94 479.927L694.164 479.628L688.608 477.494L665.308 468.542C659.513 466.316 652.92 469.199 650.671 475.054L649.156 478.997C648.513 480.67 649.36 482.572 651.032 483.215L656.887 485.464L646.398 512.766C645.181 515.933 646.74 519.548 649.967 520.788L657.076 523.519L655.607 527.343C655.332 528.06 655.474 528.937 656.017 529.488C656.247 529.782 656.522 529.957 656.881 530.095C657.239 530.232 657.703 530.273 658.094 530.149L663.355 528.948L666.458 533.363C666.895 534.01 667.671 534.309 668.443 534.262C669.238 534.156 669.909 533.66 670.184 532.943L671.676 529.06C671.773 529.165 671.952 529.234 672.071 529.28L685.872 534.582C686.111 534.674 686.29 534.743 686.492 534.752L686.552 534.775L686.612 534.798C686.666 534.818 686.736 534.832 686.813 534.846C686.868 534.857 686.927 534.867 686.985 534.882C687.028 534.893 687.071 534.906 687.113 534.922L687.232 534.968C687.257 534.977 687.281 534.986 687.303 534.99C687.318 534.993 687.333 534.993 687.345 534.987C687.358 534.982 687.368 534.972 687.375 534.954C687.409 534.967 687.441 534.974 687.471 534.977C687.493 534.979 687.514 534.98 687.535 534.981H687.536C687.568 534.983 687.6 534.984 687.634 534.991C687.639 534.992 687.643 534.993 687.649 534.994L687.657 534.996C687.669 534.999 687.683 535.004 687.696 535.009C687.707 535.013 687.721 535.016 687.736 535.018C687.752 535.02 687.771 535.022 687.79 535.023L687.809 535.024L687.827 535.025C687.878 535.027 687.928 535.029 687.958 535.041C688.018 535.064 688.078 535.087 688.101 535.027C688.185 535.031 688.269 535.035 688.349 535.037C688.461 535.04 688.564 535.04 688.647 535.031C688.707 535.054 688.79 535.018 688.79 535.018C688.804 535.023 688.816 535.024 688.828 535.022C688.84 535.02 688.85 535.016 688.861 535.011L688.865 535.009C688.873 535.005 688.882 535.002 688.891 535C688.903 534.997 688.917 534.998 688.932 535.004C688.967 535.005 689.001 535.004 689.034 535.002C689.097 534.997 689.157 534.987 689.217 534.976C689.278 534.965 689.339 534.955 689.403 534.95C689.435 534.948 689.468 534.947 689.502 534.948C689.644 534.935 689.87 534.884 690.035 534.81C690.035 534.81 690.052 534.817 690.072 534.814C690.089 534.811 690.107 534.801 690.118 534.774L690.2 534.737L690.283 534.7C690.366 534.663 690.443 534.641 690.52 534.62C690.546 534.612 690.572 534.605 690.598 534.597C690.65 534.581 690.702 534.563 690.756 534.539C690.817 534.512 690.882 534.486 690.947 534.46C691.15 534.379 691.364 534.294 691.524 534.148C691.689 534.075 691.96 533.904 692.171 533.711C692.183 533.682 692.203 533.672 692.224 533.663C692.245 533.654 692.265 533.645 692.277 533.615C692.288 533.585 692.309 533.576 692.33 533.567L692.337 533.563C692.34 533.562 692.343 533.561 692.346 533.559L692.349 533.557C692.351 533.556 692.354 533.554 692.356 533.553C692.359 533.551 692.362 533.549 692.364 533.546C692.367 533.543 692.37 533.54 692.373 533.537C692.377 533.531 692.38 533.526 692.383 533.518C692.39 533.5 692.401 533.489 692.413 533.481C692.42 533.477 692.428 533.473 692.435 533.47C692.456 533.461 692.477 533.452 692.488 533.422C692.507 533.404 692.525 533.389 692.543 533.375C692.561 533.36 692.579 533.347 692.597 533.334L692.635 533.307C692.682 533.274 692.729 533.24 692.782 533.192L693.099 532.902C693.111 532.872 693.137 532.848 693.163 532.824C693.19 532.8 693.216 532.776 693.228 532.746C693.485 532.434 693.742 532.121 693.94 531.785L693.94 531.785C694.16 531.39 694.381 530.995 694.564 530.517L698.03 521.496C698.911 519.915 698.065 518.013 696.393 517.37ZM653.98 476.257C655.518 472.254 660.066 470.231 664.069 471.768L687.07 480.605C685.774 481.479 684.722 482.789 684.126 484.342L681.555 491.033L652.58 479.901L653.98 476.257ZM667.357 518.351C663.833 516.996 662.067 513.027 663.421 509.502C664.775 505.977 668.722 504.271 672.246 505.625C675.771 506.98 677.537 510.949 676.183 514.474C674.829 517.999 670.882 519.705 667.357 518.351ZM664.856 524.863L659.843 525.953L662.414 519.262C663.402 520.259 664.638 521.145 666.072 521.696C667.506 522.247 668.935 522.453 670.419 522.338L667.826 529.089L664.856 524.863ZM672.879 525.751L674.646 521.151C676.782 520.052 678.528 518.186 679.469 515.736C681.512 510.419 678.886 504.405 673.509 502.34C668.192 500.297 662.178 502.923 660.112 508.3C659.194 510.689 659.241 513.244 660.069 515.55L658.325 520.091L651.215 517.359C649.841 516.832 649.142 515.26 649.67 513.886L660.159 486.584L680.472 494.388C682.145 495.03 684.047 494.184 684.689 492.511L687.329 485.641C688.178 483.431 690.645 482.184 692.901 482.914L693.678 483.213C695.769 484.016 696.836 486.414 696.033 488.505L681.825 525.486C681.389 526.621 681.252 527.871 681.422 529.033L673.297 525.912C673.141 525.783 673.021 525.737 672.879 525.751ZM691.214 529.779C691.15 529.857 691.08 529.95 691.01 530.043C690.976 530.088 690.941 530.134 690.908 530.177C690.873 530.223 690.838 530.267 690.805 530.307C690.778 530.332 690.752 530.353 690.729 530.372L690.726 530.375C690.658 530.429 690.605 530.472 690.571 530.56L690.383 530.693C690.341 530.712 690.294 530.745 690.247 530.778C690.2 530.812 690.153 530.845 690.112 530.863L690.029 530.9C690.021 530.904 690.013 530.908 690.004 530.912L689.993 530.919L689.98 530.926C689.969 530.932 689.958 530.939 689.947 530.946C689.879 530.988 689.797 531.038 689.698 531.047C689.615 531.084 689.533 531.121 689.39 531.135L689.308 531.171C689.083 531.222 688.857 531.273 688.655 531.264C688.65 531.266 688.646 531.268 688.641 531.27L688.632 531.273C688.623 531.276 688.614 531.278 688.606 531.279C688.6 531.281 688.595 531.281 688.589 531.282C688.563 531.285 688.539 531.282 688.516 531.276C688.495 531.27 688.474 531.262 688.453 531.255C688.431 531.246 688.406 531.246 688.38 531.247L688.367 531.248L688.355 531.25L688.341 531.251L688.328 531.252C688.3 531.254 688.274 531.254 688.251 531.245L688.108 531.259C688.049 531.236 687.906 531.25 687.846 531.227L687.787 531.204C687.757 531.193 687.706 531.19 687.656 531.188C687.605 531.186 687.555 531.184 687.525 531.172L687.405 531.126L687.107 531.011C685.314 530.323 684.431 528.338 685.12 526.546L688.379 518.062L694.772 520.518C694.772 520.518 691.343 529.622 691.214 529.779ZM388.321 482.317H396.421C397.571 482.317 398.471 483.167 398.471 484.317V484.967C398.471 490.667 394.121 499.317 388.171 500.167C387.421 504.917 384.071 508.767 379.671 510.317V521.217H388.121C389.121 521.217 389.921 522.017 389.921 523.017V525.567C389.921 526.567 389.121 527.367 388.121 527.367H363.221C362.221 527.367 361.421 526.567 361.421 525.567V523.067C361.421 522.067 362.221 521.267 363.221 521.267H371.221V510.367C366.821 508.817 363.471 504.967 362.721 500.217C356.771 499.367 352.421 490.717 352.421 485.017V484.367C352.421 483.167 353.271 482.317 354.421 482.317H362.521V482.167C362.521 480.817 363.621 479.767 364.921 479.767H385.921C387.271 479.767 388.321 480.867 388.321 482.167V482.317ZM355.121 485.067C355.171 489.317 358.371 495.917 362.221 497.267V485.067H355.121ZM374.171 521.217H376.671V511.017C376.271 511.067 375.821 511.067 375.421 511.067C375.021 511.067 374.571 511.067 374.171 511.017V521.217ZM375.421 508.317C381.021 508.317 385.571 503.767 385.571 498.167V482.517H365.271V498.167C365.271 503.767 369.821 508.317 375.421 508.317ZM388.621 485.067V497.267C392.471 495.917 395.671 489.317 395.721 485.067H388.621ZM187.169 559.643L187.319 569.114L189.66 571.445C189.79 571.571 189.793 571.763 189.667 571.893L185.888 575.793C185.762 575.923 185.57 575.926 185.44 575.8L181.54 572.022C181.41 571.896 181.407 571.704 181.533 571.574L183.8 569.233L183.676 561.362L179.101 563.483L178.529 563.748L178.733 576.675C178.833 582.946 173.857 588.081 167.586 588.18L152.42 588.42C146.149 588.519 141.013 583.544 140.914 577.273L140.706 564.091L131.749 560.328C130.976 560.02 130.452 559.26 130.439 558.428C130.426 557.596 130.925 556.82 131.688 556.488L158.573 544.413C159.209 544.211 159.913 544.2 160.556 544.382L160.749 544.443L187.362 555.671C188.329 556.104 188.922 557.183 188.556 558.277C188.373 558.856 187.868 559.312 187.36 559.576L187.169 559.643ZM167.594 584.66C171.882 584.592 175.346 581.017 175.278 576.729L175.097 565.275L161.053 571.706C160.734 571.775 160.351 571.845 160.031 571.85C159.647 571.856 159.327 571.861 159.005 571.738L158.812 571.677L144.249 565.571L144.434 577.217C144.502 581.505 148.077 584.969 152.364 584.901L167.594 584.66ZM159.976 568.394L177.642 560.306L183.042 557.724L159.522 547.791L136.07 558.339L140.451 560.126L159.976 568.394ZM566.675 447.068L559.504 448.202L552.762 405.567C552.525 404.068 551.166 403.08 549.667 403.317L541.713 404.575C540.736 404.73 540.012 405.646 540.177 406.689C540.342 407.732 541.248 408.391 542.291 408.226L549.331 407.112L555.929 448.834L548.693 449.978C547.715 450.133 546.991 451.049 547.156 452.092C547.321 453.135 548.227 453.794 549.27 453.629L567.328 450.773C568.306 450.618 569.03 449.702 568.865 448.659C568.7 447.616 567.718 446.903 566.675 447.068ZM550.884 391.831C552.565 393.053 552.937 395.406 551.715 397.086C550.493 398.767 548.141 399.139 546.46 397.917C544.78 396.696 544.407 394.343 545.629 392.662C546.851 390.982 549.203 390.61 550.884 391.831ZM228.502 317.866L238.101 323.408C238.984 323.918 239.342 325.067 238.798 326.009C238.254 326.951 237.08 327.216 236.197 326.706L226.598 321.164C225.656 320.62 225.357 319.505 225.901 318.563C226.445 317.621 227.618 317.356 228.502 317.866ZM253.191 336.439L262.79 341.981C263.674 342.491 264.847 342.226 265.391 341.284C265.935 340.342 265.637 339.227 264.694 338.683L255.095 333.141C254.212 332.631 253.038 332.896 252.494 333.838C251.95 334.78 252.249 335.895 253.191 336.439ZM258.744 348.989L249.145 343.447C248.203 342.903 247.905 341.788 248.449 340.846C248.993 339.904 250.166 339.639 251.049 340.149L260.648 345.691C261.591 346.235 261.889 347.35 261.345 348.292C260.801 349.234 259.628 349.499 258.744 348.989ZM234.055 330.416L224.456 324.874C223.572 324.364 222.399 324.629 221.855 325.571C221.311 326.513 221.61 327.628 222.552 328.172L232.151 333.714C233.034 334.224 234.208 333.959 234.752 333.017C235.296 332.075 234.938 330.926 234.055 330.416ZM220.41 331.882L230.009 337.424C230.892 337.934 231.25 339.083 230.706 340.025C230.162 340.967 228.988 341.232 228.105 340.722L218.506 335.18C217.564 334.636 217.265 333.521 217.809 332.579C218.353 331.637 219.526 331.372 220.41 331.882ZM245.099 350.455L254.698 355.997C255.581 356.507 256.755 356.242 257.299 355.3C257.843 354.358 257.544 353.243 256.602 352.699L247.003 347.157C246.119 346.647 244.946 346.912 244.402 347.854C243.858 348.796 244.156 349.911 245.099 350.455ZM511.419 586.874L475.366 561.708C476.428 560.186 484.13 563.689 493.072 569.775L495.38 566.468L495.17 566.322C490.298 561.672 487.987 555.143 488.749 548.572L483.449 544.872C482.609 544.286 482.419 543.217 483.005 542.377C483.591 541.537 484.713 541.384 485.5 541.933L507.962 557.612C508.749 558.161 508.939 559.23 508.353 560.07C507.767 560.91 506.645 561.063 505.858 560.514L492.108 550.916C492.041 555.709 493.966 560.331 497.552 563.692C498.701 564.728 499.924 565.66 501.294 566.382C509.07 570.561 518.813 568.23 523.869 560.988C526.689 556.947 527.668 551.855 526.581 547.038C526.502 546.592 526.386 546.199 526.271 545.806L511.663 553.092C510.782 553.571 509.697 553.672 508.763 553.332C508.721 553.312 508.679 553.292 508.638 553.273L508.632 553.27C508.336 553.13 508.073 553.006 507.798 552.814C507.273 552.448 506.822 551.977 506.496 551.437L503.331 545.013C502.395 543.111 503.137 540.819 505.039 539.883L528.046 528.391C529.948 527.455 532.24 528.197 533.176 530.099L536.341 536.523C537.276 538.425 536.535 540.717 534.633 541.653L529.519 544.171C529.575 544.398 529.638 544.63 529.702 544.863C529.731 544.968 529.761 545.074 529.79 545.18C529.885 545.519 529.98 545.859 530.062 546.189C531.412 551.97 530.251 558.106 526.844 562.987C520.727 571.751 509.038 574.519 499.699 569.561L499.541 569.451L497.307 572.653C506.276 579.147 512.482 585.352 511.419 586.874ZM509.865 549.965C509.918 550.001 510.007 549.985 510.096 549.97L532.977 538.546C533.103 538.477 533.16 538.283 533.092 538.158L529.927 531.734C529.859 531.608 529.665 531.551 529.539 531.619L506.658 543.043C506.532 543.111 506.474 543.305 506.543 543.431L509.708 549.855L509.865 549.965ZM457.45 311.074C457.203 310.51 456.772 310.087 456.182 309.858L448.063 306.698C447.501 306.395 446.854 306.313 446.318 306.487C445.732 306.684 445.207 307.159 445 307.801L441.559 316.532L410.135 330.35C408.956 330.869 408.417 332.146 408.958 333.376L425.909 371.926C426.428 373.105 427.705 373.645 428.935 373.103L467.434 356.175C468.613 355.656 469.152 354.379 468.611 353.149L454.41 320.853L457.54 312.808C457.719 312.241 457.698 311.638 457.45 311.074ZM443.174 341.21L441.993 340.751C441.181 340.435 440.309 340.818 439.993 341.63C439.678 342.442 440.061 343.313 440.873 343.629L441.168 343.744L436.705 347.786L436.127 341.74L436.422 341.854C436.791 341.998 437.217 341.994 437.576 341.836C437.935 341.678 438.226 341.367 438.37 340.998C438.686 340.186 438.302 339.315 437.491 338.999L436.31 338.539L444.553 317.357L451.394 319.977L443.174 341.21ZM465.374 353.716L428.464 369.946L412.144 332.832L440.031 320.569L432.908 338.872L432.742 339.19L433.873 350.805C433.922 351.334 434.125 351.796 434.562 352.093L434.583 352.105C434.839 352.25 435.413 352.575 436.21 352.225L436.415 352.135L445.238 344.095L452.705 324.906L465.374 353.716ZM452.514 317.099L445.673 314.479L447.511 309.755L454.375 312.426L452.514 317.099ZM9.5926 485.331C10.0094 485.808 10.1951 486.382 10.1535 486.997C10.112 487.611 9.8507 488.155 9.42937 488.576L2.92752 494.254L0.54763 529.454C0.45697 530.794 -0.612953 531.676 -1.89802 531.589L-43.8582 528.753C-45.1992 528.662 -46.081 527.592 -45.9941 526.307L-43.1534 484.291C-43.0627 482.95 -41.9928 482.068 -40.7077 482.155L-6.4579 484.471L0.636677 478.327C1.11766 477.854 1.80323 477.676 2.41405 477.774C2.969 477.867 3.50506 478.24 3.86217 478.77L9.5926 485.331ZM-17.2959 506.133L-16.4623 507.087L0.660999 492.08L-4.1876 486.589L-21.3072 501.54L-20.4736 502.494C-19.9006 503.15 -19.9648 504.1 -20.621 504.673C-20.9192 504.934 -21.3217 505.075 -21.7128 505.048C-22.1039 505.022 -22.4836 504.828 -22.7441 504.53L-22.9525 504.291L-25.2413 509.917L-19.4138 508.403L-19.6222 508.164C-20.1953 507.508 -20.131 506.559 -19.4749 505.985C-18.8187 505.412 -17.8689 505.477 -17.2959 506.133ZM-42.8124 525.736L-2.58421 528.456L-0.461201 497.056L-15.9702 510.6L-27.5133 513.637L-27.7368 513.622C-28.6054 513.563 -28.9637 513.009 -29.1232 512.762L-29.1366 512.741C-29.3857 512.275 -29.3517 511.772 -29.1501 511.281L-24.7705 500.464L-24.476 500.259L-9.68278 487.34L-40.0774 485.285L-42.8124 525.736ZM-1.86125 484.557L2.98735 490.048L6.80117 486.77L1.95636 481.223L-1.86125 484.557Z" fill="#667EEA"/>
<path opacity="0.05" fill-rule="evenodd" clip-rule="evenodd" d="M1420.79 12.7448C1420.51 11.4948 1420.24 10.3142 1420 9.09111C1419.72 7.92323 1419.44 6.72693 1419.16 5.52197L1419.16 5.51664C1418.88 4.33118 1418.6 3.13737 1418.32 1.95401C1418.2 1.28643 1417.85 0.708549 1417.34 0.386122C1416.83 0.0636944 1416.21 -0.0884286 1415.59 0.0529327L1374.55 9.33566L1363.35 18.5832C1362.98 18.8858 1362.71 19.3116 1362.71 19.7865C1362.75 20.2883 1363.02 20.8125 1363.53 21.1349L1363.7 21.2424L1378.08 24.7793L1419.05 15.5122C1420.3 15.2295 1421.08 13.9948 1420.79 12.7448ZM1374.3 13.1129L1374.59 14.363C1374.67 14.7102 1374.88 15.026 1375.18 15.2141C1375.48 15.4022 1375.86 15.4625 1376.21 15.384C1376.97 15.2112 1377.43 14.4874 1377.25 13.7235L1376.78 11.6402L1405.67 5.10614L1407.93 15.1062L1379.13 21.694L1378.64 19.5412C1378.47 18.7773 1377.75 18.3205 1376.98 18.4933C1376.22 18.6661 1375.76 19.3898 1375.93 20.1537L1376.23 21.4732L1367 19.2182L1374.3 13.1129ZM1410.73 14.5474L1408.45 4.47786L1415.71 2.87122C1415.89 3.63411 1416.06 4.39998 1416.24 5.16585L1416.24 5.16629C1416.6 6.70091 1416.95 8.23554 1417.27 9.74625C1417.5 10.7879 1417.74 11.8296 1417.95 12.9138L1410.73 14.5474ZM1062.87 38.7836L1040.85 26.0676C1039.73 25.4216 1038.49 25.2558 1037.29 25.4276C1036.84 24.3038 1036.08 23.3136 1034.96 22.6676L1012.94 9.95159C1011.4 9.06759 1009.4 9.55627 1008.48 11.1463L989.403 44.1834C988.519 45.7146 989.008 47.7241 990.598 48.6421L1013.86 62.0721L1013.79 62.1899C1013.28 63.0733 1013.55 64.2468 1014.49 64.7908C1015.43 65.3348 1016.55 65.0362 1017.09 64.0939L1017.16 63.9762L1017.28 64.0442L1040.65 77.5421C1042.19 78.4261 1044.2 77.9375 1045.11 76.3474L1064.22 43.2514C1064.99 41.6523 1064.46 39.7016 1062.87 38.7836ZM1011.48 13.4285L1033.09 25.9065C1033.8 26.3145 1034.11 27.2774 1033.66 28.043L1015.98 58.6656C1015.97 58.69 1015.95 58.7086 1015.92 58.7304C1015.88 58.7611 1015.83 58.7982 1015.79 58.8672L992.88 45.6412L1011.48 13.4285ZM1042.03 73.9383L1019.12 60.7123L1036.94 29.8541C1037.34 29.1474 1038.31 28.8396 1039.07 29.2816L1060.69 41.7596L1042.09 73.9723L1042.03 73.9383ZM851.376 33.8254L846.64 25.6224L846.774 25.471C847.09 24.9933 847.309 24.3493 847.188 23.7544C846.976 22.6202 845.933 21.966 844.878 22.058L816.163 25.1865L815.965 25.2271C815.315 25.3808 814.705 25.7328 814.247 26.2191L796.626 49.8426C796.12 50.5037 796.061 51.4248 796.477 52.1453C796.893 52.8659 797.72 53.275 798.546 53.1681L808.202 52.1011L814.794 63.5187C817.93 68.9505 824.836 70.8011 830.268 67.6651L843.404 60.0811C848.836 56.9451 850.686 50.0385 847.55 44.6067L841.086 33.4108L841.457 32.9011L844.424 28.8235L848.36 35.6408L847.516 38.7881C847.47 38.963 847.566 39.1293 847.74 39.1761L852.986 40.5816C853.161 40.6285 853.327 40.5325 853.374 40.3576L854.779 35.1121C854.826 34.9373 854.73 34.771 854.555 34.7241L851.376 33.8254ZM844.557 46.3347C846.701 50.0483 845.413 54.8567 841.699 57.0007L828.508 64.6167C824.795 66.7607 819.986 65.4723 817.842 61.7587L812.018 51.6713L827.712 49.9264L827.911 49.8858C828.252 49.8367 828.529 49.6767 828.861 49.4847C829.139 49.3247 829.439 49.0773 829.684 48.8618L838.829 36.4136L844.557 46.3347ZM838.638 30.8338L827.133 46.4917L806.051 48.7607L801.355 49.3293L816.719 28.7087L842.101 25.9522L838.638 30.8338ZM1035.95 145.386L1061.58 130.588C1062.3 130.167 1062.6 129.22 1062.15 128.444C1061.7 127.667 1060.76 127.497 1060.04 127.918L1034.4 142.716C1031.44 144.425 1030.28 148.011 1031.59 151.071C1031.6 151.196 1031.68 151.342 1031.77 151.488L1052.73 187.798C1054.08 190.128 1057.06 190.928 1059.39 189.583L1085.65 174.421C1086.62 173.86 1086.97 172.558 1086.41 171.587L1067.1 138.141C1066.54 137.17 1065.24 136.822 1064.27 137.382L1039.56 151.648C1037.86 152.629 1035.57 152.013 1034.58 150.314C1033.6 148.615 1034.25 146.366 1035.95 145.386ZM1041.1 154.317L1064.94 140.557L1083.24 172.255L1057.85 186.913C1056.98 187.417 1055.9 187.13 1055.4 186.256L1037.46 155.189C1038.67 155.267 1039.94 154.99 1041.1 154.317ZM1072.98 170.862L1060.65 177.98C1059.93 178.401 1059.63 179.348 1060.08 180.124C1060.53 180.901 1061.45 181.147 1062.22 180.699L1074.5 173.608C1075.23 173.188 1075.53 172.241 1075.08 171.464C1074.63 170.688 1073.71 170.441 1072.98 170.862ZM1064.02 152.54L1049.22 161.088C1048.68 161.396 1048 161.211 1047.69 160.678L1046.01 157.765C1045.7 157.231 1045.88 156.542 1046.42 156.234L1061.22 147.686C1061.76 147.377 1062.44 147.562 1062.75 148.096L1064.43 151.008C1064.74 151.542 1064.56 152.232 1064.02 152.54ZM1482.22 223.37L1475.52 220.8L1485.14 195.767C1486.63 191.884 1484.71 187.442 1480.82 185.95L1480.76 185.927L1479.99 185.628L1474.43 183.494L1451.13 174.542C1445.34 172.316 1438.74 175.199 1436.49 181.054L1434.98 184.997C1434.34 186.67 1435.18 188.572 1436.86 189.215L1442.71 191.464L1432.22 218.766C1431 221.933 1432.56 225.548 1435.79 226.788L1442.9 229.519L1441.43 233.343C1441.15 234.06 1441.3 234.937 1441.84 235.488C1442.07 235.782 1442.35 235.957 1442.7 236.095C1443.06 236.232 1443.53 236.273 1443.92 236.149L1449.18 234.948L1452.28 239.363C1452.72 240.01 1453.49 240.309 1454.27 240.262C1455.06 240.156 1455.73 239.66 1456.01 238.943L1457.5 235.06C1457.6 235.165 1457.77 235.234 1457.89 235.28L1471.7 240.582C1471.93 240.674 1472.11 240.743 1472.32 240.752L1472.38 240.775L1472.43 240.798C1472.49 240.819 1472.56 240.832 1472.64 240.846C1472.73 240.864 1472.84 240.884 1472.94 240.922L1473.06 240.968C1473.08 240.977 1473.1 240.986 1473.13 240.99C1473.14 240.993 1473.16 240.993 1473.17 240.987C1473.18 240.982 1473.19 240.972 1473.2 240.954C1473.26 240.977 1473.31 240.979 1473.36 240.981C1473.39 240.983 1473.42 240.984 1473.46 240.991C1473.46 240.992 1473.47 240.994 1473.48 240.996C1473.49 240.999 1473.51 241.004 1473.52 241.009C1473.53 241.013 1473.54 241.016 1473.56 241.018C1473.58 241.02 1473.59 241.022 1473.61 241.023L1473.63 241.024L1473.65 241.025C1473.7 241.027 1473.75 241.029 1473.78 241.041C1473.84 241.064 1473.9 241.087 1473.92 241.027C1474.01 241.031 1474.09 241.035 1474.17 241.037C1474.28 241.04 1474.39 241.04 1474.47 241.031C1474.53 241.054 1474.61 241.018 1474.61 241.018C1474.63 241.023 1474.64 241.024 1474.65 241.022C1474.66 241.02 1474.67 241.015 1474.68 241.011L1474.69 241.009C1474.7 241.005 1474.71 241.002 1474.71 241C1474.73 240.997 1474.74 240.998 1474.76 241.004C1474.86 241.008 1474.95 240.992 1475.04 240.976C1475.13 240.96 1475.22 240.944 1475.33 240.948C1475.47 240.935 1475.69 240.884 1475.86 240.81C1475.86 240.81 1475.92 240.833 1475.94 240.774L1476.02 240.737L1476.11 240.7C1476.19 240.663 1476.27 240.641 1476.34 240.62C1476.37 240.612 1476.4 240.605 1476.42 240.597C1476.47 240.581 1476.52 240.563 1476.58 240.539C1476.64 240.512 1476.7 240.486 1476.77 240.46C1476.97 240.379 1477.19 240.294 1477.35 240.148C1477.51 240.075 1477.78 239.904 1477.99 239.711C1478.02 239.652 1478.08 239.675 1478.1 239.615C1478.11 239.585 1478.13 239.576 1478.15 239.567L1478.16 239.563C1478.16 239.562 1478.17 239.561 1478.17 239.559L1478.17 239.557C1478.17 239.556 1478.18 239.554 1478.18 239.553C1478.18 239.551 1478.18 239.549 1478.19 239.546C1478.19 239.539 1478.2 239.531 1478.21 239.518C1478.22 239.488 1478.24 239.479 1478.26 239.47C1478.28 239.461 1478.3 239.452 1478.31 239.422C1478.33 239.405 1478.35 239.389 1478.37 239.375C1478.38 239.36 1478.4 239.347 1478.42 239.334L1478.46 239.307C1478.51 239.274 1478.55 239.24 1478.61 239.192L1478.92 238.902C1478.93 238.872 1478.96 238.848 1478.99 238.824C1479.01 238.8 1479.04 238.776 1479.05 238.746C1479.31 238.434 1479.57 238.121 1479.76 237.785L1479.76 237.785C1479.98 237.39 1480.2 236.995 1480.39 236.517L1483.85 227.496C1484.73 225.915 1483.89 224.013 1482.22 223.37ZM1439.8 182.257C1441.34 178.254 1445.89 176.231 1449.89 177.768L1472.89 186.605C1471.6 187.479 1470.55 188.789 1469.95 190.342L1467.38 197.033L1438.4 185.901L1439.8 182.257ZM1453.18 224.351C1449.66 222.996 1447.89 219.027 1449.24 215.502C1450.6 211.977 1454.54 210.271 1458.07 211.625C1461.59 212.98 1463.36 216.949 1462.01 220.474C1460.65 223.999 1456.71 225.705 1453.18 224.351ZM1450.68 230.863L1445.67 231.953L1448.24 225.262C1449.23 226.259 1450.46 227.145 1451.9 227.696C1453.33 228.247 1454.76 228.453 1456.24 228.338L1453.65 235.089L1450.68 230.863ZM1458.7 231.751L1460.47 227.151C1462.61 226.052 1464.35 224.186 1465.29 221.736C1467.33 216.419 1464.71 210.405 1459.33 208.34C1454.01 206.297 1448 208.923 1445.94 214.3C1445.02 216.689 1445.06 219.244 1445.89 221.55L1444.15 226.091L1437.04 223.359C1435.66 222.832 1434.97 221.26 1435.49 219.886L1445.98 192.584L1466.29 200.388C1467.97 201.03 1469.87 200.184 1470.51 198.511L1473.15 191.641C1474 189.431 1476.47 188.184 1478.72 188.914L1479.5 189.213C1481.59 190.016 1482.66 192.414 1481.86 194.505L1467.65 231.486C1467.21 232.621 1467.07 233.871 1467.25 235.033L1459.12 231.912C1458.96 231.783 1458.84 231.737 1458.7 231.751ZM1477.04 235.779C1476.97 235.857 1476.9 235.95 1476.83 236.043C1476.76 236.136 1476.69 236.229 1476.63 236.307C1476.6 236.333 1476.57 236.355 1476.55 236.375C1476.48 236.429 1476.43 236.472 1476.39 236.56L1476.21 236.693C1476.12 236.73 1476.02 236.827 1475.93 236.863L1475.85 236.9C1475.84 236.904 1475.84 236.908 1475.83 236.912L1475.82 236.919L1475.8 236.926C1475.79 236.932 1475.78 236.939 1475.77 236.946C1475.7 236.988 1475.62 237.038 1475.52 237.047C1475.44 237.084 1475.36 237.121 1475.21 237.135L1475.13 237.171C1474.91 237.222 1474.68 237.273 1474.48 237.264C1474.47 237.267 1474.46 237.27 1474.46 237.273C1474.45 237.276 1474.44 237.278 1474.43 237.279C1474.42 237.281 1474.42 237.281 1474.41 237.282C1474.36 237.287 1474.32 237.271 1474.28 237.255C1474.25 237.246 1474.23 237.246 1474.2 237.247L1474.19 237.249L1474.18 237.25L1474.16 237.251L1474.15 237.252C1474.12 237.254 1474.1 237.254 1474.07 237.245L1473.93 237.259C1473.87 237.236 1473.73 237.25 1473.67 237.227L1473.61 237.204C1473.55 237.181 1473.41 237.195 1473.35 237.172L1473.23 237.126L1472.93 237.011C1471.14 236.323 1470.25 234.338 1470.94 232.546L1474.2 224.062L1480.59 226.518C1480.59 226.518 1477.17 235.622 1477.04 235.779ZM1174.14 188.317H1182.24C1183.39 188.317 1184.29 189.167 1184.29 190.317V190.967C1184.29 196.667 1179.94 205.317 1173.99 206.167C1173.24 210.917 1169.89 214.767 1165.49 216.317V227.217H1173.94C1174.94 227.217 1175.74 228.017 1175.74 229.017V231.567C1175.74 232.567 1174.94 233.367 1173.94 233.367H1149.04C1148.04 233.367 1147.24 232.567 1147.24 231.567V229.067C1147.24 228.067 1148.04 227.267 1149.04 227.267H1157.04V216.367C1152.64 214.817 1149.29 210.967 1148.54 206.217C1142.59 205.367 1138.24 196.717 1138.24 191.017V190.367C1138.24 189.167 1139.09 188.317 1140.24 188.317H1148.34V188.167C1148.34 186.817 1149.44 185.767 1150.74 185.767H1171.74C1173.09 185.767 1174.14 186.867 1174.14 188.167V188.317ZM1140.94 191.067C1140.99 195.317 1144.19 201.917 1148.04 203.267V191.067H1140.94ZM1159.99 227.217H1162.49V217.017C1162.09 217.067 1161.64 217.067 1161.24 217.067C1160.84 217.067 1160.39 217.067 1159.99 217.017V227.217ZM1161.24 214.317C1166.84 214.317 1171.39 209.767 1171.39 204.167V188.517H1151.09V204.167C1151.09 209.767 1155.64 214.317 1161.24 214.317ZM1174.44 191.067V203.267C1178.29 201.917 1181.49 195.317 1181.54 191.067H1174.44ZM972.992 265.643L973.142 275.114L975.483 277.445C975.613 277.571 975.616 277.763 975.49 277.893L971.711 281.793C971.585 281.923 971.393 281.926 971.263 281.8L967.363 278.022C967.233 277.896 967.23 277.704 967.356 277.574L969.623 275.233L969.499 267.362L964.924 269.483L964.352 269.748L964.556 282.675C964.656 288.946 959.68 294.081 953.409 294.18L938.243 294.42C931.972 294.52 926.836 289.544 926.737 283.273L926.529 270.091L917.572 266.328C916.799 266.02 916.275 265.26 916.262 264.428C916.249 263.596 916.748 262.82 917.511 262.488L944.396 250.413C945.033 250.211 945.736 250.2 946.379 250.382L946.572 250.443L973.185 261.671C974.152 262.104 974.745 263.183 974.379 264.277C974.196 264.856 973.691 265.312 973.183 265.576L972.992 265.643ZM953.417 290.66C957.705 290.592 961.169 287.017 961.101 282.729L960.92 271.275L946.876 277.706C946.557 277.775 946.174 277.845 945.854 277.85C945.47 277.856 945.15 277.861 944.828 277.738L944.635 277.677L930.072 271.571L930.257 283.217C930.325 287.505 933.9 290.969 938.187 290.901L953.417 290.66ZM945.799 274.394L963.465 266.306L968.865 263.724L945.345 253.791L921.893 264.339L926.274 266.126L945.799 274.394ZM1352.5 153.068L1345.33 154.202L1338.59 111.567C1338.35 110.068 1336.99 109.08 1335.49 109.317L1327.54 110.575C1326.56 110.73 1325.83 111.646 1326 112.689C1326.16 113.732 1327.07 114.391 1328.11 114.226L1335.15 113.112L1341.75 154.834L1334.52 155.978C1333.54 156.133 1332.81 157.049 1332.98 158.092C1333.14 159.135 1334.05 159.794 1335.09 159.629L1353.15 156.773C1354.13 156.619 1354.85 155.702 1354.69 154.659C1354.52 153.616 1353.54 152.903 1352.5 153.068ZM1336.71 97.8315C1338.39 99.0531 1338.76 101.406 1337.54 103.086C1336.32 104.767 1333.96 105.139 1332.28 103.917C1330.6 102.696 1330.23 100.343 1331.45 98.6625C1332.67 96.9819 1335.03 96.6098 1336.71 97.8315ZM1014.32 23.8662L1023.92 29.4082C1024.81 29.9182 1025.16 31.0668 1024.62 32.0091C1024.08 32.9513 1022.9 33.216 1022.02 32.706L1012.42 27.164C1011.48 26.62 1011.18 25.5053 1011.72 24.5631C1012.27 23.6208 1013.44 23.3562 1014.32 23.8662ZM1039.01 42.439L1048.61 47.981C1049.5 48.491 1050.67 48.2264 1051.21 47.2841C1051.76 46.3419 1051.46 45.2272 1050.52 44.6832L1040.92 39.1412C1040.04 38.6312 1038.86 38.8959 1038.32 39.8381C1037.77 40.7804 1038.07 41.895 1039.01 42.439ZM1044.57 54.9891L1034.97 49.4471C1034.03 48.9031 1033.73 47.7884 1034.27 46.8462C1034.82 45.9039 1035.99 45.6393 1036.87 46.1493L1046.47 51.6913C1047.41 52.2353 1047.71 53.35 1047.17 54.2922C1046.62 55.2344 1045.45 55.4991 1044.57 54.9891ZM1019.88 36.416L1010.28 30.8741C1009.4 30.364 1008.22 30.6287 1007.68 31.571C1007.13 32.5132 1007.43 33.6279 1008.37 34.1719L1017.97 39.7139C1018.86 40.2239 1020.03 39.9592 1020.57 39.017C1021.12 38.0747 1020.76 36.926 1019.88 36.416ZM1006.23 37.8819L1015.83 43.4239C1016.72 43.9339 1017.07 45.0826 1016.53 46.0248C1015.98 46.9671 1014.81 47.2318 1013.93 46.7218L1004.33 41.1798C1003.39 40.6358 1003.09 39.5211 1003.63 38.5788C1004.18 37.6366 1005.35 37.3719 1006.23 37.8819ZM1030.92 56.4549L1040.52 61.9969C1041.4 62.5069 1042.58 62.2422 1043.12 61.3C1043.67 60.3578 1043.37 59.2431 1042.42 58.6991L1032.83 53.1571C1031.94 52.6471 1030.77 52.9118 1030.22 53.854C1029.68 54.7962 1029.98 55.9109 1030.92 56.4549ZM1297.24 292.874L1261.19 267.708C1262.25 266.186 1269.95 269.689 1278.89 275.775L1281.2 272.468L1280.99 272.322C1276.12 267.672 1273.81 261.143 1274.57 254.572L1269.27 250.872C1268.43 250.286 1268.24 249.217 1268.83 248.377C1269.41 247.538 1270.54 247.384 1271.32 247.933L1293.78 263.612C1294.57 264.161 1294.76 265.23 1294.18 266.07C1293.59 266.91 1292.47 267.063 1291.68 266.514L1277.93 256.916C1277.86 261.709 1279.79 266.331 1283.37 269.692C1284.52 270.728 1285.75 271.66 1287.12 272.382C1294.89 276.561 1304.64 274.23 1309.69 266.988C1312.51 262.947 1313.49 257.855 1312.4 253.038C1312.33 252.592 1312.21 252.199 1312.09 251.806L1297.49 259.092C1296.61 259.571 1295.52 259.672 1294.59 259.332C1294.54 259.312 1294.5 259.292 1294.46 259.273L1294.46 259.27C1294.16 259.13 1293.9 259.006 1293.62 258.814C1293.1 258.448 1292.64 257.977 1292.32 257.437L1289.15 251.013C1288.22 249.111 1288.96 246.819 1290.86 245.883L1313.87 234.391C1315.77 233.455 1318.06 234.197 1319 236.099L1322.16 242.523C1323.1 244.425 1322.36 246.717 1320.46 247.653L1315.34 250.171C1315.4 250.398 1315.46 250.63 1315.53 250.863C1315.55 250.968 1315.58 251.074 1315.61 251.18C1315.71 251.519 1315.8 251.859 1315.88 252.189C1317.23 257.97 1316.07 264.106 1312.67 268.987C1306.55 277.751 1294.86 280.519 1285.52 275.561L1285.36 275.451L1283.13 278.653C1292.1 285.147 1298.3 291.352 1297.24 292.874ZM1295.69 255.965C1295.74 256.001 1295.83 255.985 1295.92 255.97L1318.8 244.546C1318.93 244.477 1318.98 244.283 1318.92 244.158L1315.75 237.734C1315.68 237.608 1315.49 237.551 1315.36 237.619L1292.48 249.043C1292.35 249.111 1292.3 249.305 1292.37 249.431L1295.53 255.855L1295.69 255.965ZM1243.27 17.0738C1243.03 16.5099 1242.6 16.0875 1242 15.8577L1233.89 12.6984C1233.32 12.3948 1232.68 12.3127 1232.14 12.4868C1231.55 12.6835 1231.03 13.1591 1230.82 13.8008L1227.38 22.5323L1195.96 36.3504C1194.78 36.8689 1194.24 38.1461 1194.78 39.3764L1211.73 77.9259C1212.25 79.105 1213.53 79.6445 1214.76 79.1035L1253.26 62.1746C1254.44 61.6561 1254.98 60.3789 1254.43 59.1486L1240.23 26.8531L1243.36 18.8084C1243.54 18.2405 1243.52 17.6377 1243.27 17.0738ZM1229 47.2101L1227.82 46.7506C1227 46.4346 1226.13 46.8178 1225.82 47.6297C1225.5 48.4415 1225.88 49.313 1226.7 49.6289L1226.99 49.7438L1222.53 53.786L1221.95 47.7395L1222.24 47.8544C1222.61 47.998 1223.04 47.994 1223.4 47.8362C1223.76 47.6784 1224.05 47.3669 1224.19 46.9978C1224.51 46.186 1224.13 45.3145 1223.31 44.9986L1222.13 44.5391L1230.38 23.3572L1237.22 25.9769L1229 47.2101ZM1251.2 59.7158L1214.29 75.9459L1197.97 38.8317L1225.85 26.569L1218.73 44.8725L1218.57 45.1903L1219.7 56.8055C1219.75 57.3345 1219.95 57.7958 1220.38 58.0932L1220.41 58.1054C1220.66 58.2502 1221.24 58.5753 1222.03 58.2248L1222.24 58.1347L1231.06 50.0953L1238.53 30.9062L1251.2 59.7158ZM1238.34 23.0986L1231.5 20.4788L1233.33 15.7553L1240.2 18.4263L1238.34 23.0986ZM795.416 191.331C795.832 191.808 796.018 192.382 795.977 192.997C795.935 193.611 795.674 194.155 795.252 194.576L788.751 200.254L786.371 235.454C786.28 236.795 785.21 237.676 783.925 237.589L741.965 234.752C740.624 234.662 739.742 233.592 739.829 232.307L742.67 190.291C742.76 188.95 743.83 188.068 745.115 188.155L779.365 190.471L786.46 184.327C786.941 183.855 787.626 183.676 788.237 183.774C788.792 183.867 789.328 184.24 789.685 184.77L795.416 191.331ZM768.527 212.133L769.361 213.087L786.484 198.08L781.635 192.589L764.516 207.54L765.349 208.494C765.922 209.15 765.858 210.1 765.202 210.673C764.904 210.934 764.501 211.075 764.11 211.048C763.719 211.022 763.339 210.828 763.079 210.53L762.871 210.291L760.582 215.917L766.409 214.403L766.201 214.164C765.628 213.508 765.692 212.559 766.348 211.985C767.004 211.412 767.954 211.477 768.527 212.133ZM743.011 231.736L783.239 234.456L785.362 203.056L769.853 216.6L758.31 219.637L758.086 219.622C757.218 219.563 756.859 219.009 756.7 218.762L756.686 218.741C756.437 218.275 756.471 217.772 756.673 217.281L761.053 206.464L761.347 206.259L776.14 193.34L745.746 191.285L743.011 231.736ZM783.962 190.557L788.81 196.048L792.624 192.77L787.779 187.223L783.962 190.557ZM1420.79 306.745C1420.51 305.495 1420.24 304.314 1420 303.091C1419.72 301.923 1419.44 300.727 1419.16 299.522L1419.16 299.518C1418.88 298.332 1418.6 297.138 1418.32 295.954C1418.2 295.286 1417.85 294.709 1417.34 294.386C1416.83 294.064 1416.21 293.912 1415.59 294.053L1374.55 303.336L1363.35 312.583C1362.98 312.886 1362.71 313.312 1362.71 313.786C1362.75 314.288 1363.02 314.812 1363.53 315.135L1363.7 315.242L1378.08 318.779L1419.05 309.512C1420.3 309.23 1421.08 307.995 1420.79 306.745ZM1374.3 307.113L1374.59 308.363C1374.67 308.71 1374.88 309.026 1375.18 309.214C1375.48 309.402 1375.86 309.462 1376.21 309.384C1376.97 309.211 1377.43 308.487 1377.25 307.724L1376.78 305.64L1405.67 299.106L1407.93 309.106L1379.13 315.694L1378.64 313.541C1378.47 312.777 1377.75 312.32 1376.98 312.493C1376.22 312.666 1375.76 313.39 1375.93 314.154L1376.23 315.473L1367 313.218L1374.3 307.113ZM1410.73 308.547L1408.45 298.478L1415.71 296.871C1415.89 297.634 1416.06 298.4 1416.24 299.166C1416.6 300.701 1416.95 302.236 1417.27 303.746L1417.27 303.747C1417.5 304.788 1417.74 305.83 1417.95 306.914L1410.73 308.547ZM1062.87 332.784L1040.85 320.068C1039.73 319.422 1038.49 319.256 1037.29 319.428C1036.84 318.304 1036.08 317.314 1034.96 316.668L1012.94 303.952C1011.4 303.068 1009.4 303.556 1008.48 305.146L989.403 338.183C988.519 339.715 989.008 341.724 990.598 342.642L1013.86 356.072L1013.79 356.19C1013.28 357.073 1013.55 358.247 1014.49 358.791C1015.43 359.335 1016.55 359.036 1017.09 358.094L1017.16 357.976L1017.28 358.044L1040.65 371.542C1042.19 372.426 1044.2 371.937 1045.11 370.347L1064.22 337.251C1064.99 335.652 1064.46 333.702 1062.87 332.784ZM1011.48 307.429L1033.09 319.907C1033.8 320.315 1034.11 321.277 1033.66 322.043L1015.98 352.666C1015.97 352.69 1015.95 352.709 1015.92 352.73C1015.88 352.761 1015.83 352.798 1015.79 352.867L992.88 339.641L1011.48 307.429ZM1042.03 367.938L1019.12 354.712L1036.94 323.854C1037.34 323.147 1038.31 322.84 1039.07 323.282L1060.69 335.76L1042.09 367.972L1042.03 367.938ZM851.376 327.825L846.64 319.622L846.774 319.471C847.09 318.993 847.309 318.349 847.188 317.754C846.976 316.62 845.933 315.966 844.878 316.058L816.163 319.187L815.965 319.227C815.315 319.381 814.705 319.733 814.247 320.219L796.626 343.843C796.12 344.504 796.061 345.425 796.477 346.145C796.893 346.866 797.72 347.275 798.546 347.168L808.202 346.101L814.794 357.519C817.93 362.95 824.836 364.801 830.268 361.665L843.404 354.081C848.836 350.945 850.686 344.038 847.55 338.607L841.086 327.411L841.457 326.901L844.424 322.823L848.36 329.641L847.516 332.788C847.47 332.963 847.566 333.129 847.74 333.176L852.986 334.582C853.161 334.628 853.327 334.533 853.374 334.358L854.779 329.112C854.826 328.937 854.73 328.771 854.555 328.724L851.376 327.825ZM844.557 340.335C846.701 344.048 845.413 348.857 841.699 351.001L828.508 358.617C824.795 360.761 819.986 359.472 817.842 355.759L812.018 345.671L827.712 343.926L827.911 343.886C828.252 343.837 828.529 343.677 828.861 343.485C829.139 343.325 829.439 343.077 829.684 342.862L838.829 330.414L844.557 340.335ZM838.638 324.834L827.133 340.492L806.051 342.761L801.355 343.329L816.719 322.709L842.101 319.952L838.638 324.834ZM1035.95 439.386L1061.58 424.588C1062.3 424.167 1062.6 423.22 1062.15 422.444C1061.7 421.667 1060.76 421.497 1060.04 421.918L1034.4 436.716C1031.44 438.425 1030.28 442.011 1031.59 445.071C1031.6 445.196 1031.68 445.342 1031.77 445.488L1052.73 481.798C1054.08 484.128 1057.06 484.928 1059.39 483.583L1085.65 468.421C1086.62 467.86 1086.97 466.558 1086.41 465.587L1067.1 432.141C1066.54 431.17 1065.24 430.822 1064.27 431.382L1039.56 445.648C1037.86 446.629 1035.57 446.013 1034.58 444.314C1033.6 442.615 1034.25 440.366 1035.95 439.386ZM1041.1 448.317L1064.94 434.557L1083.24 466.255L1057.85 480.913C1056.98 481.417 1055.9 481.13 1055.4 480.256L1037.46 449.189C1038.67 449.267 1039.94 448.99 1041.1 448.317ZM1072.98 464.862L1060.65 471.98C1059.93 472.401 1059.63 473.348 1060.08 474.124C1060.53 474.901 1061.45 475.147 1062.22 474.699L1074.5 467.608C1075.23 467.188 1075.53 466.241 1075.08 465.464C1074.63 464.688 1073.71 464.441 1072.98 464.862ZM1064.02 446.54L1049.22 455.088C1048.68 455.396 1048 455.211 1047.69 454.678L1046.01 451.765C1045.7 451.231 1045.88 450.542 1046.42 450.234L1061.22 441.686C1061.76 441.377 1062.44 441.562 1062.75 442.096L1064.43 445.008C1064.74 445.542 1064.56 446.232 1064.02 446.54ZM1482.22 517.37L1475.52 514.8L1485.14 489.767C1486.63 485.884 1484.71 481.442 1480.82 479.95L1480.76 479.927L1479.99 479.628L1474.43 477.494L1451.13 468.542C1445.34 466.316 1438.74 469.199 1436.49 475.054L1434.98 478.997C1434.34 480.67 1435.18 482.572 1436.86 483.215L1442.71 485.464L1432.22 512.766C1431 515.933 1432.56 519.548 1435.79 520.788L1442.9 523.519L1441.43 527.343C1441.15 528.06 1441.3 528.937 1441.84 529.488C1442.07 529.782 1442.35 529.957 1442.7 530.095C1443.06 530.232 1443.53 530.273 1443.92 530.149L1449.18 528.948L1452.28 533.363C1452.72 534.01 1453.49 534.309 1454.27 534.262C1455.06 534.156 1455.73 533.66 1456.01 532.943L1457.5 529.06C1457.6 529.165 1457.77 529.234 1457.89 529.28L1471.7 534.582C1471.93 534.674 1472.11 534.743 1472.32 534.752L1472.38 534.775L1472.43 534.798C1472.49 534.818 1472.56 534.832 1472.64 534.846C1472.69 534.857 1472.75 534.867 1472.81 534.882C1472.85 534.893 1472.89 534.906 1472.94 534.922L1473.06 534.968C1473.08 534.977 1473.1 534.986 1473.13 534.99C1473.14 534.993 1473.16 534.993 1473.17 534.987C1473.18 534.982 1473.19 534.972 1473.2 534.954C1473.23 534.967 1473.26 534.974 1473.29 534.977C1473.32 534.979 1473.34 534.98 1473.36 534.981H1473.36C1473.39 534.983 1473.42 534.984 1473.46 534.991C1473.46 534.992 1473.47 534.993 1473.47 534.994L1473.48 534.996C1473.49 534.999 1473.51 535.004 1473.52 535.009C1473.53 535.013 1473.54 535.016 1473.56 535.018C1473.58 535.02 1473.59 535.022 1473.61 535.023L1473.63 535.024L1473.65 535.025C1473.7 535.027 1473.75 535.029 1473.78 535.041C1473.84 535.064 1473.9 535.087 1473.92 535.027C1474.01 535.031 1474.09 535.035 1474.17 535.037C1474.28 535.04 1474.39 535.04 1474.47 535.031C1474.53 535.054 1474.61 535.018 1474.61 535.018C1474.63 535.023 1474.64 535.024 1474.65 535.022C1474.66 535.02 1474.67 535.016 1474.68 535.011L1474.69 535.009C1474.7 535.005 1474.71 535.002 1474.71 535C1474.73 534.997 1474.74 534.998 1474.76 535.004C1474.79 535.005 1474.82 535.004 1474.86 535.002C1474.92 534.997 1474.98 534.987 1475.04 534.976C1475.1 534.965 1475.16 534.955 1475.23 534.95C1475.26 534.948 1475.29 534.947 1475.33 534.948C1475.47 534.935 1475.69 534.884 1475.86 534.81C1475.86 534.81 1475.88 534.817 1475.9 534.814C1475.91 534.811 1475.93 534.801 1475.94 534.774L1476.02 534.737L1476.11 534.7C1476.19 534.663 1476.27 534.641 1476.34 534.62C1476.37 534.612 1476.4 534.605 1476.42 534.597C1476.47 534.581 1476.52 534.563 1476.58 534.539C1476.64 534.512 1476.7 534.486 1476.77 534.46C1476.97 534.379 1477.19 534.294 1477.35 534.148C1477.51 534.075 1477.78 533.904 1477.99 533.711C1478.01 533.682 1478.03 533.672 1478.05 533.663C1478.07 533.654 1478.09 533.645 1478.1 533.615C1478.11 533.585 1478.13 533.576 1478.15 533.567L1478.16 533.563C1478.16 533.562 1478.17 533.561 1478.17 533.559L1478.17 533.557C1478.17 533.556 1478.18 533.554 1478.18 533.553C1478.18 533.551 1478.18 533.549 1478.19 533.546C1478.19 533.543 1478.19 533.54 1478.2 533.537C1478.2 533.531 1478.2 533.526 1478.21 533.518C1478.21 533.5 1478.22 533.489 1478.24 533.481C1478.24 533.477 1478.25 533.473 1478.26 533.47C1478.28 533.461 1478.3 533.452 1478.31 533.422C1478.33 533.404 1478.35 533.389 1478.37 533.375C1478.38 533.36 1478.4 533.347 1478.42 533.334L1478.46 533.307C1478.51 533.274 1478.55 533.24 1478.61 533.192L1478.92 532.902C1478.93 532.872 1478.96 532.848 1478.99 532.824C1479.01 532.8 1479.04 532.776 1479.05 532.746C1479.31 532.434 1479.57 532.121 1479.76 531.785L1479.76 531.785C1479.98 531.39 1480.2 530.995 1480.39 530.517L1483.85 521.496C1484.73 519.915 1483.89 518.013 1482.22 517.37ZM1439.8 476.257C1441.34 472.254 1445.89 470.231 1449.89 471.768L1472.89 480.605C1471.6 481.479 1470.55 482.789 1469.95 484.342L1467.38 491.033L1438.4 479.901L1439.8 476.257ZM1453.18 518.351C1449.66 516.996 1447.89 513.027 1449.24 509.502C1450.6 505.977 1454.54 504.271 1458.07 505.625C1461.59 506.98 1463.36 510.949 1462.01 514.474C1460.65 517.999 1456.71 519.705 1453.18 518.351ZM1450.68 524.863L1445.67 525.953L1448.24 519.262C1449.23 520.259 1450.46 521.145 1451.9 521.696C1453.33 522.247 1454.76 522.453 1456.24 522.338L1453.65 529.089L1450.68 524.863ZM1458.7 525.751L1460.47 521.151C1462.61 520.052 1464.35 518.186 1465.29 515.736C1467.33 510.419 1464.71 504.405 1459.33 502.34C1454.01 500.297 1448 502.923 1445.94 508.3C1445.02 510.689 1445.06 513.244 1445.89 515.55L1444.15 520.091L1437.04 517.359C1435.66 516.832 1434.97 515.26 1435.49 513.886L1445.98 486.584L1466.29 494.388C1467.97 495.03 1469.87 494.184 1470.51 492.511L1473.15 485.641C1474 483.431 1476.47 482.184 1478.72 482.914L1479.5 483.213C1481.59 484.016 1482.66 486.414 1481.86 488.505L1467.65 525.486C1467.21 526.621 1467.07 527.871 1467.25 529.033L1459.12 525.912C1458.96 525.783 1458.84 525.737 1458.7 525.751ZM1477.04 529.779C1476.97 529.857 1476.9 529.95 1476.83 530.043C1476.8 530.088 1476.76 530.134 1476.73 530.177C1476.7 530.223 1476.66 530.267 1476.63 530.307C1476.6 530.332 1476.58 530.353 1476.55 530.372L1476.55 530.375C1476.48 530.429 1476.43 530.472 1476.39 530.56L1476.21 530.693C1476.16 530.712 1476.12 530.745 1476.07 530.778C1476.02 530.812 1475.98 530.845 1475.93 530.863L1475.85 530.9C1475.84 530.904 1475.84 530.908 1475.83 530.912L1475.82 530.919L1475.8 530.926C1475.79 530.932 1475.78 530.939 1475.77 530.946C1475.7 530.988 1475.62 531.038 1475.52 531.047C1475.44 531.084 1475.36 531.121 1475.21 531.135L1475.13 531.171C1474.91 531.222 1474.68 531.273 1474.48 531.264C1474.47 531.266 1474.47 531.268 1474.46 531.27L1474.46 531.273C1474.45 531.276 1474.44 531.278 1474.43 531.279C1474.42 531.281 1474.42 531.281 1474.41 531.282C1474.39 531.285 1474.36 531.282 1474.34 531.276C1474.32 531.27 1474.3 531.262 1474.28 531.255C1474.25 531.246 1474.23 531.246 1474.2 531.247L1474.19 531.248L1474.18 531.25L1474.16 531.251L1474.15 531.252C1474.12 531.254 1474.1 531.254 1474.07 531.245L1473.93 531.259C1473.87 531.236 1473.73 531.25 1473.67 531.227L1473.61 531.204C1473.58 531.193 1473.53 531.19 1473.48 531.188C1473.43 531.186 1473.38 531.184 1473.35 531.172L1473.23 531.126L1472.93 531.011C1471.14 530.323 1470.25 528.338 1470.94 526.546L1474.2 518.062L1480.59 520.518C1480.59 520.518 1477.17 529.622 1477.04 529.779ZM1174.14 482.317H1182.24C1183.39 482.317 1184.29 483.167 1184.29 484.317V484.967C1184.29 490.667 1179.94 499.317 1173.99 500.167C1173.24 504.917 1169.89 508.767 1165.49 510.317V521.217H1173.94C1174.94 521.217 1175.74 522.017 1175.74 523.017V525.567C1175.74 526.567 1174.94 527.367 1173.94 527.367H1149.04C1148.04 527.367 1147.24 526.567 1147.24 525.567V523.067C1147.24 522.067 1148.04 521.267 1149.04 521.267H1157.04V510.367C1152.64 508.817 1149.29 504.967 1148.54 500.217C1142.59 499.367 1138.24 490.717 1138.24 485.017V484.367C1138.24 483.167 1139.09 482.317 1140.24 482.317H1148.34V482.167C1148.34 480.817 1149.44 479.767 1150.74 479.767H1171.74C1173.09 479.767 1174.14 480.867 1174.14 482.167V482.317ZM1140.94 485.067C1140.99 489.317 1144.19 495.917 1148.04 497.267V485.067H1140.94ZM1159.99 521.217H1162.49V511.017C1162.09 511.067 1161.64 511.067 1161.24 511.067C1160.84 511.067 1160.39 511.067 1159.99 511.017V521.217ZM1161.24 508.317C1166.84 508.317 1171.39 503.767 1171.39 498.167V482.517H1151.09V498.167C1151.09 503.767 1155.64 508.317 1161.24 508.317ZM1174.44 485.067V497.267C1178.29 495.917 1181.49 489.317 1181.54 485.067H1174.44ZM972.992 559.643L973.142 569.114L975.483 571.445C975.613 571.571 975.616 571.763 975.49 571.893L971.711 575.793C971.585 575.923 971.393 575.926 971.263 575.8L967.363 572.022C967.233 571.896 967.23 571.704 967.356 571.574L969.623 569.233L969.499 561.362L964.924 563.483L964.352 563.748L964.556 576.675C964.656 582.946 959.68 588.081 953.409 588.18L938.243 588.42C931.972 588.519 926.836 583.544 926.737 577.273L926.529 564.091L917.572 560.328C916.799 560.02 916.275 559.26 916.262 558.428C916.249 557.596 916.748 556.82 917.511 556.488L944.396 544.413C945.033 544.211 945.736 544.2 946.379 544.382L946.572 544.443L973.185 555.671C974.152 556.104 974.745 557.183 974.379 558.277C974.196 558.856 973.691 559.312 973.183 559.576L972.992 559.643ZM953.417 584.66C957.705 584.592 961.169 581.017 961.101 576.729L960.92 565.275L946.876 571.706C946.557 571.775 946.174 571.845 945.854 571.85C945.47 571.856 945.15 571.861 944.828 571.738L944.635 571.677L930.072 565.571L930.257 577.217C930.325 581.505 933.9 584.969 938.187 584.901L953.417 584.66ZM945.799 568.394L963.465 560.306L968.865 557.724L945.345 547.791L921.893 558.339L926.274 560.126L945.799 568.394ZM1352.5 447.068L1345.33 448.202L1338.59 405.567C1338.35 404.068 1336.99 403.08 1335.49 403.317L1327.54 404.575C1326.56 404.73 1325.83 405.646 1326 406.689C1326.16 407.732 1327.07 408.391 1328.11 408.226L1335.15 407.112L1341.75 448.834L1334.52 449.978C1333.54 450.133 1332.81 451.049 1332.98 452.092C1333.14 453.135 1334.05 453.794 1335.09 453.629L1353.15 450.773C1354.13 450.618 1354.85 449.702 1354.69 448.659C1354.52 447.616 1353.54 446.903 1352.5 447.068ZM1336.71 391.831C1338.39 393.053 1338.76 395.406 1337.54 397.086C1336.32 398.767 1333.96 399.139 1332.28 397.917C1330.6 396.696 1330.23 394.343 1331.45 392.662C1332.67 390.982 1335.03 390.61 1336.71 391.831ZM1014.32 317.866L1023.92 323.408C1024.81 323.918 1025.16 325.067 1024.62 326.009C1024.08 326.951 1022.9 327.216 1022.02 326.706L1012.42 321.164C1011.48 320.62 1011.18 319.505 1011.72 318.563C1012.27 317.621 1013.44 317.356 1014.32 317.866ZM1039.01 336.439L1048.61 341.981C1049.5 342.491 1050.67 342.226 1051.21 341.284C1051.76 340.342 1051.46 339.227 1050.52 338.683L1040.92 333.141C1040.04 332.631 1038.86 332.896 1038.32 333.838C1037.77 334.78 1038.07 335.895 1039.01 336.439ZM1044.57 348.989L1034.97 343.447C1034.03 342.903 1033.73 341.788 1034.27 340.846C1034.82 339.904 1035.99 339.639 1036.87 340.149L1046.47 345.691C1047.41 346.235 1047.71 347.35 1047.17 348.292C1046.62 349.234 1045.45 349.499 1044.57 348.989ZM1019.88 330.416L1010.28 324.874C1009.4 324.364 1008.22 324.629 1007.68 325.571C1007.13 326.513 1007.43 327.628 1008.37 328.172L1017.97 333.714C1018.86 334.224 1020.03 333.959 1020.57 333.017C1021.12 332.075 1020.76 330.926 1019.88 330.416ZM1006.23 331.882L1015.83 337.424C1016.72 337.934 1017.07 339.083 1016.53 340.025C1015.98 340.967 1014.81 341.232 1013.93 340.722L1004.33 335.18C1003.39 334.636 1003.09 333.521 1003.63 332.579C1004.18 331.637 1005.35 331.372 1006.23 331.882ZM1030.92 350.455L1040.52 355.997C1041.4 356.507 1042.58 356.242 1043.12 355.3C1043.67 354.358 1043.37 353.243 1042.42 352.699L1032.83 347.157C1031.94 346.647 1030.77 346.912 1030.22 347.854C1029.68 348.796 1029.98 349.911 1030.92 350.455ZM1297.24 586.874L1261.19 561.708C1262.25 560.186 1269.95 563.689 1278.89 569.775L1281.2 566.468L1280.99 566.322C1276.12 561.672 1273.81 555.143 1274.57 548.572L1269.27 544.872C1268.43 544.286 1268.24 543.217 1268.83 542.377C1269.41 541.537 1270.54 541.384 1271.32 541.933L1293.78 557.612C1294.57 558.161 1294.76 559.23 1294.18 560.07C1293.59 560.91 1292.47 561.063 1291.68 560.514L1277.93 550.916C1277.86 555.709 1279.79 560.331 1283.37 563.692C1284.52 564.728 1285.75 565.66 1287.12 566.382C1294.89 570.561 1304.64 568.23 1309.69 560.988C1312.51 556.947 1313.49 551.855 1312.4 547.038C1312.33 546.592 1312.21 546.199 1312.09 545.806L1297.49 553.092C1296.61 553.571 1295.52 553.672 1294.59 553.332C1294.54 553.312 1294.5 553.292 1294.46 553.273L1294.46 553.27C1294.16 553.13 1293.9 553.006 1293.62 552.814C1293.1 552.448 1292.64 551.977 1292.32 551.437L1289.15 545.013C1288.22 543.111 1288.96 540.819 1290.86 539.883L1313.87 528.391C1315.77 527.455 1318.06 528.197 1319 530.099L1322.16 536.523C1323.1 538.425 1322.36 540.717 1320.46 541.653L1315.34 544.171C1315.4 544.398 1315.46 544.63 1315.53 544.863C1315.55 544.968 1315.58 545.074 1315.61 545.18C1315.71 545.519 1315.8 545.859 1315.88 546.189C1317.23 551.97 1316.07 558.106 1312.67 562.987C1306.55 571.751 1294.86 574.519 1285.52 569.561L1285.36 569.451L1283.13 572.653C1292.1 579.147 1298.3 585.352 1297.24 586.874ZM1295.69 549.965C1295.74 550.001 1295.83 549.985 1295.92 549.97L1318.8 538.546C1318.93 538.477 1318.98 538.283 1318.92 538.158L1315.75 531.734C1315.68 531.608 1315.49 531.551 1315.36 531.619L1292.48 543.043C1292.35 543.111 1292.3 543.305 1292.37 543.431L1295.53 549.855L1295.69 549.965ZM1243.27 311.074C1243.03 310.51 1242.6 310.087 1242 309.858L1233.89 306.698C1233.32 306.395 1232.68 306.313 1232.14 306.487C1231.55 306.684 1231.03 307.159 1230.82 307.801L1227.38 316.532L1195.96 330.35C1194.78 330.869 1194.24 332.146 1194.78 333.376L1211.73 371.926C1212.25 373.105 1213.53 373.645 1214.76 373.103L1253.26 356.175C1254.44 355.656 1254.98 354.379 1254.43 353.149L1240.23 320.853L1243.36 312.808C1243.54 312.241 1243.52 311.638 1243.27 311.074ZM1229 341.21L1227.82 340.751C1227 340.435 1226.13 340.818 1225.82 341.63C1225.5 342.442 1225.88 343.313 1226.7 343.629L1226.99 343.744L1222.53 347.786L1221.95 341.74L1222.24 341.854C1222.61 341.998 1223.04 341.994 1223.4 341.836C1223.76 341.678 1224.05 341.367 1224.19 340.998C1224.51 340.186 1224.13 339.315 1223.31 338.999L1222.13 338.539L1230.38 317.357L1237.22 319.977L1229 341.21ZM1251.2 353.716L1214.29 369.946L1197.97 332.832L1225.85 320.569L1218.73 338.872L1218.57 339.19L1219.7 350.805C1219.75 351.334 1219.95 351.796 1220.38 352.093L1220.41 352.105C1220.66 352.25 1221.24 352.575 1222.03 352.225L1222.24 352.135L1231.06 344.095L1238.53 324.906L1251.2 353.716ZM1238.34 317.099L1231.5 314.479L1233.33 309.755L1240.2 312.426L1238.34 317.099ZM795.416 485.331C795.832 485.808 796.018 486.382 795.977 486.997C795.935 487.611 795.674 488.155 795.252 488.576L788.751 494.254L786.371 529.454C786.28 530.794 785.21 531.676 783.925 531.589L741.965 528.753C740.624 528.662 739.742 527.592 739.829 526.307L742.67 484.291C742.76 482.95 743.83 482.068 745.115 482.155L779.365 484.471L786.46 478.327C786.941 477.854 787.626 477.676 788.237 477.774C788.792 477.867 789.328 478.24 789.685 478.77L795.416 485.331ZM768.527 506.133L769.361 507.087L786.484 492.08L781.635 486.589L764.516 501.54L765.349 502.494C765.922 503.15 765.858 504.1 765.202 504.673C764.904 504.934 764.501 505.075 764.11 505.048C763.719 505.022 763.339 504.828 763.079 504.53L762.871 504.291L760.582 509.917L766.409 508.403L766.201 508.164C765.628 507.508 765.692 506.559 766.348 505.985C767.004 505.412 767.954 505.477 768.527 506.133ZM743.011 525.736L783.239 528.456L785.362 497.056L769.853 510.6L758.31 513.637L758.086 513.622C757.218 513.563 756.859 513.009 756.7 512.762L756.686 512.741C756.437 512.275 756.471 511.772 756.673 511.281L761.053 500.464L761.347 500.259L776.14 487.34L745.746 485.285L743.011 525.736ZM783.962 484.557L788.81 490.048L792.624 486.77L787.779 481.223L783.962 484.557Z" fill="#667EEA"/>
</svg>
