<svg width="72" height="288" viewBox="0 0 72 288" fill="none" xmlns="http://www.w3.org/2000/svg">
<rect x="16" width="40" height="40" rx="20" fill="white"/>
<path d="M37.5291 14.8V26H35.4491V16.544H33.0811V14.8H37.5291Z" fill="#5D74E4"/>
<rect x="16" y="62" width="40" height="40" rx="20" fill="white"/>
<path d="M40.1597 86.24V88H31.9038V86.608L36.3518 82.384C36.8531 81.904 37.1891 81.488 37.3598 81.136C37.5411 80.7733 37.6318 80.416 37.6318 80.064C37.6318 79.5413 37.4558 79.1413 37.1038 78.864C36.7518 78.5867 36.2344 78.448 35.5518 78.448C34.4104 78.448 33.5358 78.8373 32.9278 79.616L31.4718 78.496C31.9091 77.9093 32.4958 77.456 33.2318 77.136C33.9784 76.8053 34.8104 76.64 35.7278 76.64C36.9438 76.64 37.9144 76.928 38.6398 77.504C39.3651 78.08 39.7278 78.864 39.7278 79.856C39.7278 80.464 39.5998 81.0347 39.3438 81.568C39.0878 82.1013 38.5971 82.7093 37.8718 83.392L34.8798 86.24H40.1597Z" fill="#5D74E4"/>
<g filter="url(#filter0_d_1_677)">
<rect x="16" y="124" width="40" height="40" rx="20" fill="white"/>
<path d="M36.8158 143.424C37.8504 143.552 38.6398 143.904 39.1838 144.48C39.7278 145.056 39.9998 145.776 39.9998 146.64C39.9998 147.291 39.8344 147.883 39.5038 148.416C39.1731 148.949 38.6718 149.376 37.9998 149.696C37.3384 150.005 36.5278 150.16 35.5677 150.16C34.7678 150.16 33.9944 150.048 33.2478 149.824C32.5118 149.589 31.8824 149.269 31.3598 148.864L32.2558 147.248C32.6611 147.589 33.1518 147.861 33.7278 148.064C34.3144 148.256 34.9171 148.352 35.5358 148.352C36.2718 148.352 36.8478 148.203 37.2638 147.904C37.6904 147.595 37.9038 147.179 37.9038 146.656C37.9038 146.133 37.7011 145.728 37.2958 145.44C36.9011 145.141 36.2931 144.992 35.4718 144.992H34.4478V143.568L36.9918 140.544H31.9038V138.8H39.5358V140.192L36.8158 143.424Z" fill="#1B63F0"/>
<rect x="16.5" y="124.5" width="39" height="39" rx="19.5" stroke="#64BE97"/>
</g>
<rect x="16" y="186" width="40" height="40" rx="20" fill="white"/>
<path d="M41.2583 209.456H39.2743V212H37.2583V209.456H31.1143V208.016L36.6343 200.8H38.8583L33.6583 207.696H37.3223V205.44H39.2743V207.696H41.2583V209.456Z" fill="#5D74E4"/>
<rect x="16" y="248" width="40" height="40" rx="20" fill="white"/>
<path d="M35.5361 267.136C37.1148 267.136 38.2828 267.445 39.0401 268.064C39.7975 268.672 40.1761 269.504 40.1761 270.56C40.1761 271.232 40.0108 271.84 39.6801 272.384C39.3495 272.928 38.8535 273.36 38.1921 273.68C37.5308 274 36.7148 274.16 35.7441 274.16C34.9441 274.16 34.1708 274.048 33.4241 273.824C32.6775 273.589 32.0481 273.269 31.5361 272.864L32.4161 271.248C32.8321 271.589 33.3281 271.861 33.9041 272.064C34.4908 272.256 35.0935 272.352 35.7121 272.352C36.4481 272.352 37.0241 272.203 37.4401 271.904C37.8668 271.595 38.0801 271.173 38.0801 270.64C38.0801 270.064 37.8508 269.632 37.3921 269.344C36.9441 269.045 36.1708 268.896 35.0721 268.896H32.3681L32.9441 262.8H39.5201V264.544H34.7041L34.4641 267.136H35.5361Z" fill="#5D74E4"/>
<defs>
<filter id="filter0_d_1_677" x="0" y="112" width="72" height="72" filterUnits="userSpaceOnUse" color-interpolation-filters="sRGB">
<feFlood flood-opacity="0" result="BackgroundImageFix"/>
<feColorMatrix in="SourceAlpha" type="matrix" values="0 0 0 0 0 0 0 0 0 0 0 0 0 0 0 0 0 0 127 0" result="hardAlpha"/>
<feOffset dy="4"/>
<feGaussianBlur stdDeviation="8"/>
<feComposite in2="hardAlpha" operator="out"/>
<feColorMatrix type="matrix" values="0 0 0 0 0.886275 0 0 0 0 0.929412 0 0 0 0 0.984314 0 0 0 1 0"/>
<feBlend mode="normal" in2="BackgroundImageFix" result="effect1_dropShadow_1_677"/>
<feBlend mode="normal" in="SourceGraphic" in2="effect1_dropShadow_1_677" result="shape"/>
</filter>
</defs>
</svg>
